<?xml version="1.0" encoding="UTF-8" standalone="no"?>
<!-- Generator: Adobe Illustrator 13.0.2, SVG Export Plug-In . SVG Version: 6.00 Build 14948)  -->
<svg
  xmlns:rdf="http://www.w3.org/1999/02/22-rdf-syntax-ns#"
  xmlns="http://www.w3.org/2000/svg"
  xmlns:cc="http://web.resource.org/cc/"
  xmlns:xlink="http://www.w3.org/1999/xlink"
  xmlns:dc="http://purl.org/dc/elements/1.1/"
  xmlns:svg="http://www.w3.org/2000/svg"
  xmlns:inkscape="http://www.inkscape.org/namespaces/inkscape"
  xmlns:sodipodi="http://sodipodi.sourceforge.net/DTD/sodipodi-0.dtd"
  xmlns:ns1="http://sozi.baierouge.fr"
  id="_x33__men_xA0_Image_1_"
  viewBox="0 0 140.436 428.455"
  xml:space="preserve"
  version="1.1"
>
<g
    >
	<path
        style="clip-rule:evenodd;fill-rule:evenodd"
        d="m54.828 56.087c-2.395-0.274-1.624-3.717-2.53-5.481-1.174-0.19 0.331 2.298-0.843 2.108-1.533 0.128-0.563-2.248-1.265-2.951 3.486-2.043 4.618 3.81 4.638 6.324z"
    />
	<path
        style="clip-rule:evenodd;fill-rule:evenodd"
        d="m71.275 76.751c0.856 0.83 1.957 1.417 2.53 2.53-1.609 0.204-2.692-0.119-3.374-0.843 0.22-0.624 0.625-1.063 0.844-1.687z"
    />
	<path
        style="clip-rule:evenodd;fill-rule:evenodd"
        d="m62.42 129.04c1.886 1.695 0.296 9.457 0.843 13.917 0.26 2.12 1.198 5.192 0 8.012-1.959-1.141-0.375-3.164-0.422-5.06-0.124-5-0.781-11.23-0.421-16.87z"
    />
	<path
        style="clip-rule:evenodd;fill-rule:evenodd"
        d="m27.418 130.31c0.954 0.88 0.883 6.421 0.843 9.699-1.825-1.69-0.384-6.65-0.843-9.7z"
    />
	<path
        style="clip-rule:evenodd;fill-rule:evenodd"
        d="m35.008 138.32c1.169 2.984 0.886 6.888 0.422 10.121-0.979-2.53-0.143-6.88-0.422-10.12z"
    />
	<path
        style="clip-rule:evenodd;fill-rule:evenodd"
        d="m39.647 140.01c0.986 1.088 1.651 6.636 0 7.59v-7.59z"
    />
	<path
        style="clip-rule:evenodd;fill-rule:evenodd"
        d="m28.261 141.69c0.547-0.106 0.845 3.639 0.844 5.482-1.621-0.48-0.523-3.69-0.844-5.48z"
    />
	<path
        style="clip-rule:evenodd;fill-rule:evenodd"
        d="m31.213 152.24c0.376 0.187 0.754 0.371 0.843 0.843-0.214 6.169-1.448 9.12-1.265 15.182-1.097-2.86-0.801-11.7 0.422-16.02z"
    />
	<path
        style="clip-rule:evenodd;fill-rule:evenodd"
        d="m28.261 168.68c1.539 2.679 0.709 7.725 1.265 11.386-2.729-1.49-0.581-7.85-1.265-11.39z"
    />
	<path
        style="clip-rule:evenodd;fill-rule:evenodd"
        d="m111.76 196.52c0.479 1.081 1.886 5.213 0 5.904 0.38-2.24-0.62-4.76 0-5.9z"
    />
	<path
        style="clip-rule:evenodd;fill-rule:evenodd"
        d="m67.059 226.88c0.104-0.53 0.838-0.426 0.843 0v11.387c-1.819-2.23-0.301-9.2-0.843-11.39z"
    />
	<path
        style="clip-rule:evenodd;fill-rule:evenodd"
        d="m17.297 250.92c1.827 0.755-0.349 4.291 0.422 6.747-1.519-0.73-0.92-5.38-0.422-6.75z"
    />
	<path
        style="clip-rule:evenodd;fill-rule:evenodd"
        d="m34.165 262.3c1.443 3.801 0.216 8.947 0.421 12.651-1.234-2.1 0.03-8.56-0.421-12.65z"
    />
	<path
        style="clip-rule:evenodd;fill-rule:evenodd"
        d="m67.059 265.68c1.736 0.935 0.445 4.896 0.843 7.169-1.923-1.68-0.505-4.31-0.843-7.17z"
    />
	<path
        style="clip-rule:evenodd;fill-rule:evenodd"
        d="m75.07 270.74c0.685-0.014 0.685 6.202 0 7.592-1.233-2.09 0.178-5.16 0-7.59z"
    />
	<path
        style="clip-rule:evenodd;fill-rule:evenodd"
        d="m84.349 274.53c2.052 0.421 0.089 3.221 0.422 4.639-1.578-0.89-0.39-2.92-0.422-4.64z"
    />
	<path
        style="clip-rule:evenodd;fill-rule:evenodd"
        d="m97.843 275.38c0.813 2.088 0.547 6.725 0 8.855-0.743-2.03-0.646-6.83 0-8.86z"
    />
	<path
        style="clip-rule:evenodd;fill-rule:evenodd"
        d="m92.782 286.76c0.376 0.188 0.755 0.371 0.845 0.843-0.478 1.743-0.02 3.773 0 5.904 0.017 2.02-0.74 6.457-0.845 3.796 0.304-3.7-0.475-8 0-10.54z"
    />
	<path
        style="clip-rule:evenodd;fill-rule:evenodd"
        d="m78.866 293.51c1.406 8.438-0.581 17.13-0.422 25.724 1.279 0.156 0.876-1.373 1.265-2.107 0.216 10.563 1.93 20.776 1.266 29.941-0.951-3.549-0.043-8.955-0.843-12.651-0.495-0.12-1.753-1.858-1.688 0-0.36-11.86-0.866-26.93 0.422-40.9z"
    />
	<path
        style="clip-rule:evenodd;fill-rule:evenodd"
        d="m56.094 298.15c0.726 3.121 0.67 9.101 0 12.23-1.103-3.5 0.602-7.83 0-12.23z"
    />
	<path
        style="clip-rule:evenodd;fill-rule:evenodd"
        d="m67.48 326.4c1.238 2.096-0.589 4.743 0 7.592-1.039-0.55-0.45-5.81 0-7.59z"
    />
	<path
        style="clip-rule:evenodd;fill-rule:evenodd"
        d="m66.214 335.68c2.173 1.997-0.008 6.661 0.422 9.7-1.374-1.57 0.101-6.31-0.422-9.7z"
    />
	<path
        style="clip-rule:evenodd;fill-rule:evenodd"
        d="m18.562 279.17c-0.845-4.612 2.667-8.371 2.108-12.652-0.389-2.974-3.643-4.395-2.951-8.012 0.954 0.848 1.5 2.431 2.108 3.796 0.957 2.148 2.137 3.827 1.687 7.592-0.354 2.965-2.549 5.13-2.108 8.012 0.52 3.402 6.71 6.688 3.795 11.387 1.448 2.72 1.787 7.312 1.688 9.276 2.461 0.619 2.328-1.606 1.687-2.951 1.695-4.069 4.619-6.909 6.325-10.965-1.659-4.041-0.502-8.469-1.687-13.072-0.812-3.162-3.055-7.185-3.795-11.387-0.285-1.613 0.131-3.508-0.422-5.061-1.143-3.207-5.066-4.899-4.639-8.434-6.908-2.229-11.397-6.878-16.446-10.965 4.094-6.167 6.472-14.052 8.012-22.772-2.918-1.637-4.21-3.31-6.747-6.325-2.521-2.998-4.847-5.401-5.482-10.544-0.305-2.473 0.195-5.291 0-8.012-0.351-4.892-1.803-9.856-1.687-14.338 0.026-0.999 0.735-1.9 0.843-2.952 0.367-3.571-0.518-8.847 1.265-13.073 0.308-0.73 2.499-3.488 3.375-4.639 1.704-2.243 3.004-4.215 5.481-5.06-2.41-6.793 1.082-11.662 2.109-17.712 0.765-4.509-0.303-9.357 0.421-13.495 0.431-2.456 2.36-4.084 3.375-6.325 1.657-3.665 1.57-7.482 3.374-10.122 2.199-2.499 5.37-0.934 8.012-1.687 3.575-1.018 5.224-5.427 7.591-8.013 0.804-0.878 2.092-1.203 2.952-2.108 4.779-5.035 8.552-12.021 12.229-16.447-0.589-1.098-0.837-2.536-1.266-3.795 1.059-4.984-1.795-8.245-1.265-12.23-0.041-1.083-1.646-0.602-1.688-1.687 2.315-8.891-4.395-12.331-2.108-20.664 3.339-0.962 6.242 1.181 9.277 0.844 2.193-2.587 3.722-5.838 5.482-8.856-1.124-2.458-4.511-0.751-5.904-3.374-0.84 0.425-1.801 0.729-2.108 1.687-1.12-0.848-1.104-2.832-2.108-3.795-1.922-0.516-1.655 1.157-3.374 0.843-0.185-2.485-2.54-2.802-4.218-3.795 0.701-2.392 5.842-0.344 6.748-2.53 1.97 0.841 2.937 2.685 6.325 2.108 0.352 1.898 0.725 3.773 2.53 4.217 1.398-0.148 1.83-1.263 2.531-2.108-0.312-1.375-2.105-1.269-3.374-1.687-1.123-1.247 1.565-1.239 0.842-3.375-0.35-2.039-2.846-1.932-4.638-2.53 1.658-1.2 1.451-4.125 0-5.482-1.289-0.305-1.537 0.431-2.53 0.421-0.32-1.584 1.103-1.427 1.687-2.108-0.566-1.616-1.828-2.601-0.421-4.229 2.707 1.089 2.957 4.633 7.169 4.218 0.464 2.628 1.074 5.11 4.217 5.061-1.122 1.623-1.779 3.266 0.422 4.217-0.081 1.747-2.228 1.428-2.53 2.952 0.805 1.584 2.685 2.094 3.374 3.795 1.258-2.453-0.575-4.009 0-6.747 1.175-5.598 14.593-9.179 14.338-0.844-0.062 2.006-1.102 2.057-2.108 3.796-1.369-0.037-0.297-2.515-2.109-2.109-1.046 0.802 1.916 1.149 1.266 2.952-0.885 1.484-2.225-2.552-2.109 0.421-2.001 0.174-2.062-1.592-3.795-1.687-1.748 0.461-2.343 3.017-1.688 4.639 1.225 1.175 1.094-1.384 2.952-0.843 1.774 0.053 2.021 1.633 3.795 1.687 1.922 4.239 5.348 8.828 6.749 12.229 3.205-0.163 5.83-0.722 8.434 0.421 1.297 2.099 1.04 8.132 0 11.386-0.662 0.182-0.36 1.326-1.687 0.844-0.34 6.863 1.968 14.609-1.688 20.663 1.255 3.26 0.865 8.279 0 11.386 3.897 6.927 9.963 11.684 18.133 14.338 3.463 6.401 2.475 14.707 5.482 21.085 1.58 3.35 5.061 5.47 5.061 9.277 0.753 0.794 1.141 1.952 2.108 2.53 1.678 4.734 3.93 9.215 6.327 13.917 4.313 8.466 5.391 17.98 6.324 30.785 1.249 1.422 3.971 1.372 5.482 2.531-0.113 5.736 3.762 7.483 5.061 11.808-0.118 1.288-1.886 0.926-2.109 2.109-0.642 2.264 0.306 4.066 0 5.903-0.298 1.796-2.247 3.421-2.529 5.482-0.142 1.036 0.699 2.211 0.421 3.374-0.977 4.083-5.419 5.827-5.903 8.855-0.436 2.726 1.581 7.748 2.109 10.965 1.484 9.041 4.547 17.605 6.325 26.568-3.403 3.627-9.009 5.048-14.761 6.324 0.653 27.271 3.806 59.101 3.796 87.295-0.002 3.87 1.818 8.017-0.423 10.543-1.113-0.431-0.645-2.447-2.951-1.687-1.12 2.033 0.995 5.115-1.687 5.902-0.956-6.759-1.333-13.496-1.687-20.241-0.46-8.785-0.251-17.461-0.843-26.146-0.405-5.923-0.474-11.847-0.845-17.712-0.771-12.212-1.342-25.013-2.108-35.846-1.335 0.143-2.901-0.245-4.216 0.422-2.386 1.212-3.164 7.52-3.374 10.543-0.143 2.038-1.381 4.347-2.108 6.747-0.691 2.282-0.881 4.937-1.688 6.747-0.473 1.062-1.659 1.795-2.108 2.953-0.571 1.472-0.355 3.264-0.845 4.638-0.763 2.146-2.537 3.499-3.373 5.482-1.405 3.338-1.558 7.021-3.373 9.699 3.09 5.857 1.358 11.721-1.688 16.447-0.077 4.281-0.163 8.552-2.108 10.964-0.956 11.325-2.604 22.069-2.529 33.315 1.408 2.527 4.904 2.967 7.589 4.216 0.86 4.343 1.916 8.489 1.689 13.916-1.298 0.954-2.057 2.444-2.953 3.796-1.55 0.317-3.631 0.664-5.903 1.267 1.038 3.88 7.586 2.251 8.856 5.902 3.938-0.283 5.948 1.359 7.167 3.796 2.835-0.685 7.715 0.17 11.81 0.422 1.334 0.083 3.126-0.381 4.216 0 2.296 0.804 4.833 4.383 5.06 5.903 0.192 1.28-1.091 7.448-3.373 7.169-0.433 2.239-0.815 4.526-2.107 5.904-1.525-1.005-2.1-2.96-3.375-4.218-3.819 0.895-3.166 3.653-5.061 6.327-2.009-0.381-1.852-2.928-2.951-4.218-4.052-0.115-2.598 5.274-4.639 7.169-0.325 1.077 1.649 1.939 0.421 2.531-0.395 3.239-6.183 2.425-6.747 0-2.617 0.053-3.557 1.782-4.638 3.373-3.041 0.72-3.787-2.301-6.325-2.108-1.998 0.15-1.99 1.422-3.796 2.951-2.101-0.431-3.608-1.453-3.796-3.796-3.346 1.337-5.245-3.171-8.012-0.42-1.104-1.428-2.75-2.312-2.952-4.64-2.656 0.547-3.279-0.938-5.061-1.265-1.286 0.542-1.927 1.728-3.374 2.108-5.334-1.224-9.697-0.863-13.073-3.796 0.312-1.544-1.037-2.342 0-3.373-3.623-4.379-1.978-10.593 0.421-15.181-2.257-1.946-4.11 0.223-7.169-1.267-0.049-1.778-1.521-2.133-2.108-3.374 1.356-3.312-0.001-9.352-1.266-12.651 1.859-1.093 3.356-2.546 5.904-2.951-0.363-5.947-2.422-11.867-3.795-17.712-0.643-2.737-1.368-4.29-2.109-7.59-0.449-2.001-2.094-3.814-2.53-5.904-0.177-0.848 0.199-1.79 0-2.531-0.955-3.557-2.439-6.647-2.53-10.543-0.178-7.577 3.424-17.351 0-25.301 1.905-3.451 0.318-6.243 0.843-10.122-1.538-1.327-0.992 2.131-2.53 2.108-2.758 0.229-4.801-0.259-7.169-0.42-1.465-2.624-5.538-4.491-7.59-8.014-1.36-2.334 0.057-6.021-0.843-10.121-0.599-2.723-3.109-3.275-4.639-5.904-2.618-4.494 0.073-11.978-2.109-17.29-1.604-3.905-7.905-6.465-2.952-11.387 2.449 0.818-1.135 1.997-0.843 3.375 0.046 2.679 3.53 4.217 4.638 6.747 1.598 3.652 0.016 8.68 0.843 13.494 0.653 3.794 5.607 7.111 6.326 10.543 0.588 2.808-0.734 5.093-0.421 7.169 0.534 3.556 3.956 6.521 6.747 8.012 0.341-0.079 0.42-0.422 0.843-0.42-2.494-5.5-0.727-13.52-5.876-16.87zm37.11-268.2c2.206 0.136 0.981-3.012 0.422-3.796-0.319 1.094-1.304 2.789-0.422 3.796zm2.531 2.108c1.508-0.177 1.187-2.187 1.265-3.794h-1.265c0.046 2.09-0.414 2.071 0 3.794zm13.072 16.025c-0.211-2.741 0.623-6.528-1.265-7.59 0.428 2.875-0.36 5.375 1.265 7.59zm-6.325 4.217c0.285 3.382-1.191 8.407 1.265 9.699-0.724-6.225-0.434-13.096-0.421-20.663-0.54-0.023-0.584-0.541-1.265-0.422 0.388 3.245 0.148 8.147 0.421 11.386zm2.109-5.061v-3.374-1.687c0.095-0.717-0.475-1.043-0.422 0-0.017 6.074-0.152 8.561 0.422 12.651 0.134-1.295 0.918-5.329 0-7.59zm1.264 0c0.093 2.649-0.999 6.743 1.266 7.591 0.339-3.877-0.127-8.005 0-13.074-0.54-0.023-0.584-0.541-1.266-0.421-1.086 1.527-0.086 3.44 0 5.904zm4.639 8.435c0.534-3.817 1.22-11.305-0.843-13.917 0.446 4.112-0.235 10.509 0.843 13.917zm-10.542 3.795c-1.019-3.355 0.501-9.66-1.266-13.073-1.173 4.633-0.282 7.295-0.421 13.073 1.682 0.005 2.135 1.238 3.374 1.687 0.403-3.404-0.289-8.715-0.422-13.073-0.068-2.233 1.208-4.92-0.844-5.904-1.368 5.762 0.967 11.288-0.421 17.29zm13.073-4.217c-0.187-3.75 0.641-8.513-1.687-10.121 1.133 3.298-0.879 8.361 1.687 10.121zm2.109 7.17c1.19-5.168-0.527-8.688 0-13.495-0.603-0.101-0.712-0.694-1.266-0.843 0.684 4.516-1.463 11.865 1.266 14.338zm-6.327-8.013c-0.046-2.125 1.076-4.171-0.422-5.482-0.907 1.431-0.105 4.148 0.422 5.482zm-11.385 4.217c0.43-2.251-0.059-7.636-0.422-9.277-0.86 1.631-2.019 8.407 0.422 9.277zm18.976 2.952c2.044-1.721 1.188-6.736 0-10.121 0.226 3.986-0.401 8.251 0 10.121zm-21.085-3.796c0.436-1.073 1.317-5.658-0.843-5.482 0.165 2.354-1.149 4.169 0.843 5.482zm-8.856 5.06c0.806-1.809-0.479-4.746 0-7.59-0.093-0.329-0.354-0.49-0.844-0.421-0.241 1.629 0.313 5.782 0.844 8.011zm1.686 0.423c-0.519-3.016 1.203-5.68 0-8.013-0.496 0.066-1.197-0.072-1.265 0.422 1.402 1.551-0.784 6.688 1.265 7.591zm37.534-0.843c-0.021-3.147-0.677-4.297 0-6.747-2.386-0.032-0.963 6.456 0 6.747zm-18.135-2.531c0.153-1.98-0.173-3.481-1.687-3.796-0.897 1.311-0.214 3.956 1.687 3.796zm-15.603 3.795c-0.213-0.644 0.772-6.103-0.844-6.747 0.105 1.777-0.969 5.405 0.844 6.747zm-2.53-7.168c1.064 1.711-1.992 5.256 0.421 6.747 0.726-2.458 1.463-4.976-0.421-6.747zm20.663 3.795c1.713 0.629 1.91-3.94 0.422-3.795-0.706 0.699-0.335 2.475-0.422 3.795zm12.651 3.795c2.551-0.361 0.005-4.157 0.844-6.747-2.462 0.797-0.688 5.484-0.844 6.747zm-29.097-0.422c-0.345-1.905 0.812-5.311-0.843-5.904-0.753 1.51 0.02 4.618 0.843 5.904zm2.109 0.843c0.058-0.814 0.811-5.448-1.265-5.481 0.402 1.846-1.039 5.536 1.265 5.481zm24.881 0c1.364 0.167 1.364-4.805 0-4.638-0.777 0.988 0.439 2.683 0 4.638zm-22.773-0.421v-3.795h-1.265c-0.966 1.716 0.176 2.963 1.265 3.795zm21.506 1.266c0.782-0.906 0.285-3.09 0.422-4.639h-1.265c0.461 2.308-0.636 3.63 0.843 4.639zm-19.819 0.421c0.421-0.988 0.052-3.353 0-4.217-0.496 0.066-1.197-0.073-1.265 0.421 1.332 1.278-0.94 3.54 1.265 3.796zm17.711 0.422c0.562-0.318 1.059-4.123-0.421-3.795-0.32 1.269-1.563 3.66 0.421 3.795zm-15.181 0.421v-3.796h-1.687c0.289 1.539-0.092 3.747 1.687 3.796zm12.652 0c0.806 0.018 1.678-3.147 0-2.952-0.899 0.285-1.384 2.82 0 2.952zm-26.569-1.264c1.725 0.136 3.59 1.792 5.061 0.843-0.246-1.52-4.342-2.457-5.061-0.843zm6.747 0.421c-5.873 4.667 8.821 8.229 7.591 1.687-3.559-0.435-4.588-0.785-7.591-1.687zm21.508 1.687c0.611 1.075 1.479 1.894 1.687 3.374 3.218 0.406 3.799-1.823 4.218-4.217-2.09-1.334-3.996 0.643-5.905 0.843zm3.373 8.012c0.99 1.028 0.944-0.47 1.688-0.843-0.641 4.897-1.042 6.689-3.374 10.542 1.306 1.132 1.639-1.14 2.531 0 0.022 0.726-0.324 1.081-0.845 1.266-2.128-0.426-4.104-1.219-3.795-2.953-2.605-0.206-3.108-2.515-4.217-4.217-4.474 0.835-5.888 0.354-10.121-0.422-0.089 0.474-0.468 0.656-0.843 0.843 1.436 7.674-10.344 7.168-8.013 0.422 1.333 1.056 1.176 3.603 2.53 4.638 2.004 0.125 3.242-0.651 3.795-1.687 1.206-2.256-1.735-6.057 0.421-7.59 0.422 0.333-0.157 1.475 0.843 2.109 1.683 0.417 1.27-1.26 2.952-0.844 3.394 3.295 7.805-1.444 3.796-4.639 0.201-1.511 0.686-2.437 0-3.796h-2.53c-0.378 4.521-11.865 5.815-11.808 0-1.864-0.667-3.19-1.87-5.904-1.687-0.495 1.753-0.527 3.971-0.843 5.903 0.292 0.833 2.353-0.104 2.53 0.844-1.284 2.658-0.276 6.685 0.843 9.278-1.324 4.582 1.955 6.513 0.843 11.386 0.785 0.058 1.409 0.277 1.687 0.843-1.181 4.336 2.194 5.566 4.217 9.277 0.882 1.617 0.034 3.093 2.109 3.375-0.019 1.283 0.89 1.64 1.265 2.53 2.047-0.36 2.394 0.98 2.952 2.108 3.32-0.656 7.875 1.592 11.807-0.421 0.074-1.473 0.971-2.123 2.109-2.53 0.009-0.994-0.726-1.242-0.422-2.531 0.562-0.702 2.39-0.141 2.953-0.844 0.248-1.345-0.793-1.304 0-2.108h1.687c1.047-2.748 1.575-6.015 2.529-8.856-1.538-0.712-3.019-1.48-3.374-3.374 1.532 0.154 1.567 1.808 2.952 2.108-0.092-3.51 0.374-4.985 0-8.013 0.098-1.086 2.176-2.027 0.422-2.53-1.174 2.2-2.188 4.56-2.529 7.591-1.095-1.407-3.379 0.854-5.482 0.843-1.527-0.008-2.208-1.194-3.796-0.843 0.135-0.978-0.068-1.619-0.422-2.109-2.72-0.405-4.943 0.749-6.747 0-0.204 0.499-0.45 0.956-0.844 1.266-2.687 0.257-5.044 0.629-8.435 0.843-0.709-0.524-2.153-1.227-1.265-2.109 1.605 1.716 3.295 0.044 5.061 0 0.59-0.015 0.775 0.655 1.687 0.422 0.447-0.114 0.299-0.853 1.266-1.265 1.162-0.496 2.499 0.565 2.53-1.265 0.569 0.132 0.806 0.6 1.687 0.421 0.045-1.081 0.239-2.011 0.844-2.53 0.806 1.586 1.5 1.089 2.952 0.421-0.056 1.04-0.064 2.033 0.421 2.531 1.049-0.046 1.306-0.79 2.109 0v2.108c1.523-0.371 2.814 1.646 3.795 0.422-1.441-0.123-3.028-2.289-1.688-3.796 1.686 0.987 2.124 3.219 5.482 2.53 1.511-1.959 2.837-5.836 1.265-8.434 0.154-0.972 1.847-0.403 1.688-1.687 1.002-0.263-1.618-2.269 0.422-2.53-0.022 0.725 0.324 1.081 0.844 1.265-1.041-3.149 1.242-7.092-1.266-8.856-0.462 2.915-0.581 6.17-2.951 7.174zm-2.951-4.639c-0.354-1.615-0.772-3.163-2.531-3.374-1.052 1.576 0.69 3.355 2.531 3.374zm-5.061-2.951c-1.435-0.029-2.943-0.131-3.374 0.843 1.896-0.069 1.143 2.512 1.687 3.794 1.311 0.798 2.323 1.895 3.374 2.953 0.288 2.223-1.383 4.386 0.843 5.06 0.917-1.754 2.225-3.118 4.218-3.795 0.131-0.985 0.826-1.742 0-2.531 0.8-1.167 2.154-1.782 2.952-2.952-3.397 1.831-9.21 0.348-9.7-3.372zm5.061 13.073c-0.096-0.748 0.425-2.112-0.844-1.687 0.426 1.739-0.407 2.856 1.265 3.795-0.227-2.04 0.358-1.604 1.266-0.843v-3.795h-1.266c0.323 1.076 0.621 1.937-0.421 2.53zm-27.411 24.036c0.756-1.321-0.16-3.58-0.422-5.06-0.22-1.245 0.711-4.532-0.844-3.374 0.847 2.392-1.022 6.225 1.266 8.434zm-3.796-5.06c2.109 6.417-0.378 15.562 0 22.772 0.115 2.189 0.3 5.028 2.109 6.326 0.191-11.502 1.655-20.922-0.844-31.206-0.625 0.494-0.656 1.589-1.265 2.104zm-1.686 16.025c-0.076 2.291-1.889 5.67 0.843 6.326 0.288-7.737 0.571-13.881 0.422-21.085-0.094-0.328-0.354-0.491-0.844-0.422-1.549 4.969-0.256 10.224-0.421 15.18zm10.121 22.347c1.945-0.795 1.538-2.874 1.687-4.217 0.53-4.818-0.026-11.901-0.422-17.712-0.143-2.095-1.175-4.299-1.265-6.325-0.144-3.192 0.806-6.018-1.266-8.012-0.035 11.338 1.609 24.219 1.266 36.269zm-2.531-5.48c-0.127 2.244-1.943 5.023 0.843 5.904 1.212-0.776 0.81-2.983 0.844-4.217 0.274-9.777-1.192-21.05-1.687-31.628-0.092-0.329-0.353-0.491-0.843-0.422-0.988 9.172 1.389 20.72 0.843 30.37zm32.893-13.915c-0.793-6.06-0.161-11.025-1.687-16.447-1.723 4.587-0.923 13.435 1.687 16.447zm1.688-5.482c-0.206-4.285-0.443-7.277-0.845-10.542-0.538-0.023-0.583-0.541-1.265-0.422-0.002 2.735 0.686 8.265 2.11 10.964zm-43.437 5.482c0.311-3.563-0.493-10.923 0.422-15.182 0.647-0.101 0.062-0.695-0.422-0.843-2.597 3.347-2.914 12.982 0 16.025zm44.28-6.325c1.345-0.362 1.304 0.663 2.108 0.843-0.463-3.809 1.254-7.186-2.531-7.591-0.07 2.461 0.737 4.044 0.423 6.748zm-46.81 1.687c-0.492-2.18-0.069-5.273-0.844-7.169-1.307 1.305-1.53 6.941 0.844 7.169zm16.868 15.183c0.094 1.064 0 1.978 0 2.951 0.002 1.849-1.542 3.936 0.422 5.482 2.124-1.002 1.48-3.971 1.265-5.903-0.167-1.492-1.107-3.298-1.265-4.639-0.769-6.533-0.07-13.229-1.266-19.399-0.539-0.023-0.584-0.541-1.266-0.421 1.03 6.644 1.455 14.5 2.11 21.93zm32.893-19.823c0.079 4.617 0.39 8.655 0.844 12.229 0.287 2.247 0.267 4.754 2.529 5.06-0.75-5.012-0.304-11.221-0.42-16.868-0.888-0.52-1.646-1.167-2.531-1.687-0.022 0.536-0.54 0.581-0.422 1.262zm-8.433 3.374c-0.568-1.597 0.572-3.34-1.265-4.217-0.516 0.928-0.484 4.224 1.265 4.217zm-23.194 14.339c0.175 1.378 1.079 2.842 1.265 4.217 0.309 2.276-0.892 4.787 0.843 6.326 1.702-2.932-0.067-7.187 0-11.386 0.092-5.737 0.284-12.879-2.53-16.869 0.377 5.205-0.335 11.739 0.422 17.709zm20.242 8.43c2.887-1.456 0.661-5.836 0.423-9.277-0.46-6.58-0.385-12.1-1.266-16.447-0.094-0.329-0.354-0.491-0.844-0.422-2.12 7.252 2.028 15.959 1.687 26.149zm-29.098-15.6c-0.074 3.473-1.163 6.76-1.266 9.699-0.101 2.881-0.012 7.558 2.109 8.434-0.08-9.338-0.187-18.65-0.843-27.41-1.262 3.209 0.064 6.254 0 9.28zm26.567 19.4c2.364-0.329 1.783-3.807 1.688-5.904-0.258-5.599-1.511-9.653-2.109-14.76-0.269-2.29 0.758-5.565-1.687-6.326-0.305 9.046 1.336 18.436 2.108 26.986zm-12.651-15.6c1.12-3.038 0.01-7.252 0-10.543h-1.265c-0.294 2.064-0.391 8.013 1.265 10.543zm2.53 6.74c0.418 3.349-0.543 6.973 1.266 8.435 1.619-7.88-1.724-16.017-1.688-25.725h-1.265c-0.671 4.778 0.938 11.295 1.687 17.295zm0.844-11.38c0.276 2.945 1.44 6.36 1.687 9.278 0.153 1.813-0.109 4.271 0 6.325 0.081 1.519-1.049 5.168 1.687 5.061 1.307-1.053 0.131-2.978 0-4.218-0.784-7.39-1.292-15.029-2.108-22.35-2.358 0.478-1.446 3.987-1.266 5.9zm6.326 13.07c0.478 4.544-0.252 9.463 2.109 10.965-0.714-8.961-1.56-19.994-2.953-29.52-0.093-0.329-0.353-0.49-0.843-0.421-0.222 7.411 1.058 13.011 1.687 18.981zm23.194-18.556c0.021 1.666 0.863 2.51 2.529 2.53-0.23-1.395-1.39-3.365-2.533-2.53zm-26.99 1.266c0.115 7.416 1.215 14.734 2.109 20.663 0.254 1.684-0.983 4.644 1.265 5.482 0.2-11.382-2.68-17.043-2.108-26.989-0.54-0.023-0.584-0.541-1.266-0.422v1.271zm12.652 18.13c-1.387-6.064 0.921-15.821-2.951-19.399 1.48 6.259-0.421 16.169 2.951 19.399zm6.747-9.7c0.393 2.426-0.276 5.518 1.687 5.905-0.24-5.193-0.243-9.989-1.687-14.761-2.298 2.636-0.575 5.311 0 8.861zm5.06-1.68c1.29-0.306 1.24 0.728 2.53 0.422-0.041-3.333-0.159-6.587-2.53-7.591-0.319 2.555 0.494 5.791 0 7.171zm-5.903 4.21c0.403-3.917-1.68-5.349-1.267-9.277-0.538-0.023-0.583-0.541-1.265-0.422 0.515 3.569-0.782 8.939 2.532 9.699zm-47.232 84.35c-0.329-0.093-0.491-0.353-0.422-0.844-0.8-1.358-1.764-1.071-2.53-2.53-1.325-2.523-0.27-7.116-2.108-9.277-2.675 1.84-0.702 5.082-0.422 8.013 0.401 4.191 0.741 8.876 0.422 12.229-0.391-3.218-1.417-11.346-2.109-14.76-0.26-1.283 0.618-4.484-1.266-3.375-0.332 4.695 1.83 12.787 1.687 17.291-2.373-1.535-0.868-5.459-1.265-8.435-0.29-2.17-1.7-3.922-1.687-5.481-1.2 2.033 0.372 6.837-0.843 8.855-1.47-2.466 0.907-8.778-1.266-10.542-3.498 1.708 0.807 9.293-1.687 11.387-0.83-3.81-0.25-9.027-0.421-13.495 1.299-0.315 0.514 1.455 2.108 0.844 1.611-3.25-0.991-7.349 0-11.386 0.17-0.691 0.753-0.332 0.843-1.266 0.893-9.267 0.591-19.603 1.266-27.833 0.712 12.501 0.535 25.893 2.951 36.688 2.311-1.453 1.54-5.988 1.266-9.277-0.552-6.641-2.534-11.913-1.266-18.134 0.877 2.468 0.04 5.136 0.422 7.591 0.217 1.392 1.125 2.571 1.266 3.795 0.166 1.449-1.577 3.392 0.421 4.218 0.758-3.34-0.374-8.864 0.844-11.386 0.312 1.655-0.89 4.825 1.265 4.638 0.277-2.948-0.377-4.964-0.422-7.59 3.333-3.473 1.8-14.151 0.843-18.977-0.798-4.028 0.251-7.275-1.687-9.278-2.297 4.65 0.819 9.344 0.422 13.917-0.128 1.47-1.126 2.744-1.266 4.218-0.397 4.203 1.134 8.537-0.421 12.651-0.057-4.643-0.09-9.77 0-13.073 0.217-7.97-2.032-15.611-2.953-23.194-0.398-3.277 0.264-6.759 0-10.12-0.067-0.847-0.71-1.827-0.843-2.953-0.22-1.86 0.86-5.066-1.266-5.903-0.781 6.549 0.619 16.249 1.266 23.194 0.129 1.389 1.357 3.234 0 4.217-1.446-3.441-0.146-10.804-2.53-15.182-0.281 4.536 1.225 10.456 0.844 15.604-2.252-7.507-1.702-18.655-2.109-25.724-2.346 0.946-1.104 4.569-1.265 6.747-0.469 6.338 1.929 11.325 2.108 18.133 0.195 7.379-0.059 15.176 0 21.508 0.026 2.813-0.427 5.504-1.687 7.169-1.025-3.024 0.556-4.824 0.844-7.591 0.583-5.616 0.263-11.262 0-16.446-0.403-7.937-2.574-15.531-2.53-23.194 0.011-1.883 1.521-3.7-0.421-5.481-3.33 6.605 1.333 17.103-0.422 24.459-1.61-2.426-0.401-7.496-0.844-12.229-0.077-0.831-0.722-1.672-0.843-2.53-0.527-3.728 0.902-7.523-0.421-9.699-2.777 1.332-1.5 4.647-1.265 7.59 0.229 2.87 0.678 6.375 0.843 9.277 0.19 3.346 0.734 6.996-0.843 8.856-0.059-10.512-0.851-15.101-1.687-24.88-2.823 7.428 1.052 17.831 0.421 26.567-2.114-6.99-1.785-14.44-2.108-21.506-1.593 1.55-1.657 3.831-1.687 5.482-0.206 11.19 3.919 21.742 4.638 32.471 0.204 3.043-0.252 6.153 0 9.277 0.754 9.313 1.992 18.749 2.53 28.254 1.031 18.206 1.758 34.832 2.531 51.449 0.155 3.353 0.14 8.187 2.108 9.276 1.535-2.749-0.198-5.371-0.421-8.012-0.402-4.761-0.443-9.659-0.843-14.761-1.666-21.239-2.777-44.86-4.217-66.629-0.144-2.174 0.167-4.255 0-6.326-0.526-6.509-2.25-12.879-2.109-17.712 1.375 1.5 0.87 4.432 2.53 4.639-0.884 3.266 1.671 3.414 0.843 7.59-1.089-0.04-1.446 1.979-0.422 3.374 0.126 1.489 0.845-1.785 1.266 0-0.744 2.959 0.83 7.204 0.422 9.278-0.286 1.448-1.182 0.544-1.266 1.687 0.029 1.658 0.205 3.169 0.844 4.217 0.279-1.126 0.177-2.635 0.843-3.374-0.006 3.924 0.658 6.873 0.422 9.699 0.252-1.096-0.169-1.518-1.265-1.265-0.049 20.006 2.274 39.809 3.795 58.194 0.273 3.302-0.228 7.199 0 10.543 0.174 2.552 0.343 5.699 1.687 6.749 2.446-2.562 0.363-6.38 0-9.7-0.48-4.391-0.997-9.546-1.266-14.338-0.364-6.511-1.55-11.896-1.265-18.555 0.062-1.448-0.863-4.341 1.265-4.639-0.355 14.555 1.58 30.004 3.795 45.123 4.036-2.357 0.435-8.339-0.422-13.916-1.085-7.071-0.566-15.203-0.843-21.929-0.085-2.082-1.476-4.692 0.422-6.325 0.47 7.397 0.591 14.028 0.843 20.664 0.182 4.798 1.32 8.676 2.109 13.073 0.379 2.116-0.375 4.576 1.265 6.325 1.2-4.103-0.351-10.185-0.843-13.074-0.969-5.687-1.23-11.697-1.266-18.132-0.017-3.24-0.636-6.07 0.422-7.591-0.167 13.366 2.848 25.374 2.952 37.111 1.786 0.1 2.143-1.23 3.374-1.688-1.183-6.768-2.361-15.206-2.952-22.771-0.209-2.681-2.196-6.082 0-7.591 0.46 7.857 1.826 15.39 2.952 22.772 0.378 2.483-0.562 5.685 1.687 7.591 3.545-2.931 0.679-8.279 0-12.651-0.162-1.04 0.127-2.113 0-3.373-0.385-3.805-2.763-9.834-1.266-11.808-2.482-3.003-3.238-9.972-2.53-14.76 0.731 3.626 0.332 8.384 2.53 10.542 0.62-4.63-1.448-6.71-0.419-10.58zm0.421 4.63c1.888 1.195 0.307 4.773 0.422 6.748 0.158 2.718 0.961 5.554 1.265 8.434 0.213 2.015 1.395 3.62 1.687 5.482 0.58 3.688-0.384 7.996 1.688 11.385 0.035-5.793-0.623-11.502-1.266-17.712-0.319-3.088-1.698-6.155-2.109-9.277-0.247-1.881 0.794-4.368-0.843-5.904-0.515 0.05-0.998 0.13-0.844 0.84zm57.778-88.55c-0.354-2.458 1.081-6.704-1.687-6.747-1.107 2.36-0.176 5.98 1.687 6.75zm-65.368 4.64c0.196 2.092-0.259 4.521 2.109 4.217 0.2-3.607 1.072-8.763 0-11.808-0.397-1.125-1.759-3.285-2.953-2.951 1.395 2.15 0.533 7.22 0.844 10.54zm50.183 0.84c0.628-4.837 0.199-6.496-0.844-11.386-0.539-0.023-0.584-0.541-1.265-0.422 1.88 2.49-0.64 10.48 2.109 11.81zm-43.014-6.75h2.108c0.056-1.039 0.064-2.032-0.421-2.53h-1.687v2.53zm54.399 3.8c1.399-1.092-1.122-3.594 1.267-3.374-0.182-1.506-1.061-2.314-2.108-2.952-0.601 1.47-0.356 5.28 0.841 6.32zm-33.314 0.42c0.224 3.162-0.825 7.048 0.843 8.855 0.01-5.095 0.928-10.629-0.843-14.76-0.502 2.01-0.114 4.3 0 5.91zm42.594-2.11c0.002-1.688-0.221-3.152-2.108-2.953 0 1.69 0.22 3.15 2.11 2.95zm-2.53 2.95c1.051-2.182-1.005-4.512-2.53-5.482-0.03 2.7 0.04 5.3 2.53 5.48zm-64.523 4.64c0.142 1.38-1.097 4.217 1.265 4.639 0.003-5.67-1.064-7.664-0.843-13.495-0.539-0.023-0.583-0.541-1.265-0.421-0.175 3.27 0.546 6.37 0.843 9.27zm27.412 3.8c1.186-2.878 0.43-10.345-1.266-13.073 0.809 5.1-1.127 11 1.266 13.07zm-24.038-9.7c0.797-0.094 0.93 0.476 1.687 0.422 0.634-1.339 0.634-3.433-1.266-3.375-0.581 0.54-0.417 1.82-0.421 2.95zm43.857 1.26c1.364-0.324 2.206-1.167 2.531-2.531-0.632-0.633-1.269-1.261-2.109-1.687-0.748 0.8-0.307 2.79-0.422 4.22zm-39.218-0.42c0.094-1.5-0.285-2.526-1.266-2.952-1.048 1.14-1.087 3.17 1.266 2.95zm53.14 7.17c0.152 2.251-0.938 5.424 1.265 6.747 0.658-4.357-1.076-9.857-0.845-15.181-0.538-0.024-0.583-0.54-1.265-0.422-0.237 2.83 0.625 5.73 0.845 8.85zm-4.644-0.84c0.411-2.063 0.382-7.052-2.109-7.591-1.234 2.88 0.676 5.99 2.109 7.59zm1.687-6.33c-1.054 2.37-1.455 10.493 2.108 10.965-0.218-4.648-0.82-6.332-0.842-10.965-0.422-0.01-0.844-0.01-1.266-0.01zm-55.665 14.34c1.786-1.341 1.626-5.154 1.265-8.013-0.262-2.071-1.389-4.293-1.687-5.482-0.092-0.329-0.353-0.49-0.843-0.421 0.351 4.9 0.612 10.48 1.265 13.91zm-25.303-4.22c0.367 1.818-1.841-0.803-1.266 1.687-0.838 5.371 0.737 9.408 1.266 13.916 0.581 4.958 0.342 10.21 1.265 15.182 0.926 4.996 2.412 9.801 2.952 14.76 1.639 15.039 0.504 28.208 1.687 42.592 0.576 7.007-0.541 14.344 2.109 20.663 0.234-10.095-1.126-20.312-1.688-30.783-0.727-13.591-0.745-28.732-2.108-40.484-1.472-12.69-3.181-24.479-4.217-36.267 2.431 5.635 1.983 11.897 2.53 18.133 0.77 8.784 3.298 17.592 3.795 26.568 0.391 7.053-0.009 14.012 0.422 21.085 0.4 6.56 0.975 13.305 1.265 19.82 0.511 11.5 0.453 22.988 2.108 33.315 0.227 1.414-0.158 3.658 1.265 4.638-0.541-11.831-1.73-26.043-2.109-40.062-0.323-11.972-2.166-27.23-2.109-38.375 0.02-3.856-0.891-7.892-1.265-11.808-0.38-3.987-0.045-8.028-0.422-11.807-0.233-2.345-1.315-4.779-1.687-7.169-1.317-8.494-2.254-16.336-2.53-24.459-0.024-0.257-0.063-0.499-0.421-0.422-2.467 3.01-1.567 5.23-0.842 9.28zm30.363-6.33c0.665-0.715 0.457-2.934-0.843-2.952-1.395 0.17-1.263 3.76 0.843 2.95zm40.484 17.72c2.056 9.301 1.428 18.771 2.109 26.989 0.075 0.915-0.117 2.086 0 2.952 0.36 2.705 1.881 5.297 2.529 8.012 0.554 2.313 0.496 5.017 0.844 7.591 0.326 2.406 1.094 4.956 1.265 7.169 0.147 1.903-1.158 4.724 0.845 6.325 0.637-14.316-3.393-28.463-4.64-43.436-0.333-4.009 0.422-8.126 0.422-12.229 0-8.074-1.099-16.5-2.109-23.616-0.968 6.11 1.118 14.05-1.265 20.25zm15.178 53.13c0.076 0.679 0.776 0.339 0.845 1.266 0.138 1.879-0.422 5.202 1.265 4.217 1.466-0.705 0.063-2.132 0-2.952-0.299-3.845-0.65-7.01-0.843-9.699-0.617-8.624 0.523-17.332 0-24.037-0.247-3.156-1.612-6.682-2.108-10.122-0.357-2.473-0.711-3.989-0.845-5.482-0.415-4.67 1.033-10.699-1.687-12.65-0.395 6.536 1.378 13.204 1.267 20.242-0.048 2.988 0.141 4.82 0.42 7.169 0.723 6.05 0.127 12.5 1.687 18.133-1.179 0.507-0.343 3.029-1.264 3.795 0.048-7.263-1.327-16.257-2.109-25.303-0.451-5.232 0.141-10.804-0.42-15.603-0.169-1.422-0.764-2.52-0.845-3.794-0.231-3.642 2.114-7.385-1.687-8.435-1.23 14.859 3.284 32.784 2.108 48.918-1.059-18.151-4.161-32.573-3.373-51.87-1.165-1.365-1.373-3.688-2.531-5.06 0.285 5.484 0.986 12.272 1.687 16.868 1.348 8.848-0.272 19.316 0.845 28.676 0.71 5.951 2.722 10.842 1.687 16.025 1.99-0.01 1.448 4.72 0.843 5.903-0.805-1.866-0.057-5.284-1.265-6.747-0.367-6.691-2.301-13.698-2.951-21.506-0.67-8.028 0.062-17.834-0.845-24.038-0.594-4.07-0.102-8.317-0.843-12.652-0.272-1.589-0.288-3.838-1.687-4.638 1 6.829 0.95 14.013 1.687 20.664 0.421 3.808 0.308 3.042 0 5.903-0.868 8.08 0.761 16.953 1.688 22.351 0.212 1.244-0.165 2.563 0 3.796 0.329 2.483 1.381 5.119 1.687 7.59 0.422 3.428 1.009 5.341 1.265 7.59 0.453 3.989-2.196 9.267 2.531 11.386 0.254-2.952-1.31-4.702-1.267-7.168 0.027-1.552 1.211-3.044 1.267-4.639 0.078-2.375-1.522-4.862 0-7.169 1.369 6.22 1.417 13.763 3.793 18.977 0.563-5.064-2.031-9.208-0.42-13.917 0.97 2.01 0.12 5.25 0.42 8zm-0.42-67.89c0.562 1.035 1.271-0.759 1.687 0.422-0.928 0.957-0.574 4.208 0.843 4.217 1.213-2.602-0.526-5.567 0-8.856-0.745-0.378-1.23-1.018-2.109-1.265-0.83 1.13-0.25 3.68-0.42 5.48zm-16.867-2.96c0.564 8.49 0.691 19.939 1.265 26.146 0.161 1.728-0.766 3.872 0.844 5.061 0.192-2.927 0.491-8.678-0.844-11.386 1.394-6.701 1.295-13.499 0.422-20.663-0.024-0.257-0.062-0.5-0.422-0.422 0.292 1.13-0.872 0.82-1.265 1.26zm21.507 5.07c0.367-1.371 0.166-5.392-1.688-5.904 0.06 2.47-0.32 5.37 1.69 5.9zm-60.304-1.69c0.485-0.499 0.478-1.491 0.422-2.53h-1.687c-0.017 1.28-0.245 2.77 1.265 2.53zm36.268 12.65c0.238 2.841 0.456 6.904 2.529 8.434-0.712-5.354-0.333-15.395-0.422-22.772-0.539-0.023-0.584-0.54-1.265-0.422 0.636 5.36-1.143 11.2-0.842 14.76zm24.456-4.22c-0.462-1.605 1.115-2.632-0.422-2.952-0.833 0.292 0.103 2.353-0.845 2.53-0.887-0.94-1.249-2.404-2.951-2.53 0.036 2.173 0.429 2.086-0.423 3.374 0.516 0.048 0.999 0.126 0.845 0.843-0.61 4.125 1.557 5.472 1.265 9.277 1.151-0.307 0.85 0.838 1.687 0.843-0.911-3.468-1.472-8.977-0.422-10.964h2.108c0.509 3.851 1.097 7.619 2.953 10.121-0.197-5.325-1.311-13.758-2.53-20.664-0.496 0.066-1.198-0.073-1.265 0.421 0.04 2.67 2.17 8.87-0.02 9.7zm-69.579-1.26c1.042-2.827 0.237-7.195-1.688-8.435-0.663 2.6 1.119 5.72 1.688 8.43zm43.436 1.69c2.471-0.471 2.1-8.542 0.42-9.278-1.824 2.35-0.099 7.36-0.42 9.28zm-34.581-4.64c0.381-0.929-0.06-1.811 0.422-3.374h-1.687c0.452 1.09 0.268 2.82 1.265 3.37zm0.844 0c1.991 0.305 1.85-1.523 2.108-2.952h-1.687c0.207 1.33-0.76 1.48-0.421 2.95zm64.1 2.53c0.003-1.745-1.067-4.001 0-5.482h-1.265c0.4 1.84-1.04 5.53 1.26 5.48zm-45.967 61.14c1.59-11.734-1.104-24.838-0.422-35.423 0.496-7.691-1.852-15.222-1.265-22.351 0.196-2.393 2.22-5.544 0-7.59-1.192 0.792-1.646 4.041-0.843 5.482-2.596-0.434 0.583 2.461-1.687 2.53-0.706-3.045 2.341-6.532 0-8.434-1.834 2.523-0.462 8.253-1.687 11.386-1.119-1.865-0.102-3.959 0-5.905 0.066-1.277 0.541-4.721-0.422-5.06-0.926 4.913-1.265 12.118-1.265 19.82 0 9.179-0.335 20.132 0.421 29.098 0.286 3.385 1.933 10.086 0.422 12.229-1.838-15.351-1.435-35.248-1.265-51.448 0.043-4.19 1.156-8.513-0.843-10.121-0.598 0.895 1.03 5.549-1.266 5.904 0.562-1.617 1.031-5.464-1.265-5.482-1.217 2.459-1.181 4.852-1.266 7.59-0.146 4.739-0.26 8.245-0.421 12.651-0.662 18.007 1.039 34.356 0.843 51.027 2.044 1.21 3.503 0.411 5.904 1.265 0.278-3.517-0.559-8.149 0.422-10.964 1.441 2.916-0.862 9.578 1.265 11.808 0.209-6.557 0.924-13.201 0.422-19.821-0.278-3.659-2.083-7.058-2.109-10.542-0.012-1.59 0.699-3.288 0.843-5.061 0.472-5.777 0.512-13.31 0-18.555-0.155-1.598-1.495-2.969-0.421-4.217 2.331 3.181 1.086 7.542 1.265 11.386 0.237 5.087-0.431 10.098-0.421 15.182 0.006 3.476 0.877 6.815 1.265 10.542 0.54 5.184 0.627 11.394 0.843 16.024 0.095 2.012-1.442 5.745 2.109 5.904 0.025-14.737-3.632-29.793-1.265-43.014 0.883 11.18-0.091 24.25 2.109 34.13zm2.108-61.14v-3.795c-1.016 0.172-0.917-0.771-2.108-0.422-0.095 2.19 1.029 3.18 2.108 4.21zm1.266-1.69c-0.078 4.925-0.243 11.153 2.53 13.917 0.294-3.672-1.834-7.155-0.421-10.542 2.868-0.179 1.803 3.52 2.108 5.482 0.329 2.109 1.101 4.289 1.265 6.326 0.215 2.655-0.833 5.78 0.844 7.59 0.134-3.146 0.579-6.735 0.421-10.121-0.104-2.249-1.468-7.688 0.422-8.856 0.195 3.954-0.436 9.636 0.844 13.494-0.822 3.496-1.23 11.948 0.843 16.025 1.114-9.724 0.253-21.03-0.843-29.941-1.495 0.529-1.475-2.644-3.374-2.952-0.871 0.921 0.775 2.682-1.687 2.53-0.519-1.308 1.618-3.207-0.422-3.374-1.475 0.569 0.687 3.172-0.421 3.374-0.923-0.765-0.072-3.302-0.843-4.217h-1.265c-0.001 0.42-0.001 0.84-0.001 1.26zm9.699 1.69c-1.139 2.655 0.132 5.989 0.422 9.699 0.812 10.418-1.764 23.974 1.687 32.05 1.282-14.976-0.453-27.965-0.843-42.593-0.54-0.023-0.585-0.541-1.266-0.421v1.26zm-13.916 1.68c-0.242 6.356 1.192 12.874 1.265 19.82 0.039 3.654-0.072 7.388 0 10.964 0.065 3.187 0.65 6.213 0.844 9.278 0.479 7.599-0.114 15.243 0 22.35 0.032 2.029-1.121 6.592 1.687 5.904 1.97 0.488 1.205-1.903 1.265-2.531 0.739-7.68-0.733-14.006-1.265-19.82-0.52-5.671-0.266-10.372 0-15.182 0.226-4.087-0.639-8.123-0.844-12.229-0.326-6.55 0.604-13.083-0.843-18.977-0.54-0.023-0.584-0.541-1.266-0.422-0.005 0.57-0.739 0.39-0.843 0.85zm-16.025 3.8c2.816 0.985 2.511-3.181 1.266-3.795-0.476 1.2-1.841 1.53-1.266 3.79zm58.615 3.79c0.268-2.506 0.54-4.635-0.422-6.748-0.82 1.71-0.55 5.49 0.42 6.75zm8.44 1.27c0.358-3.167 0.839-6.282-1.265-8.012-1.17 2.86 0.69 5.55 1.26 8.01zm-70.851-2.95v-4.639c-0.496 0.066-1.197-0.073-1.265 0.421 1.393 0.43-0.78 4.43 1.265 4.22zm2.109 1.68h1.687c0.168-1.574-0.337-2.474-1.687-2.53v2.53zm34.579 7.59c2.119 5.945-1.337 14.592 1.267 20.664-1.201 2.921-1.145 7.535-0.845 11.386 0.231 2.97 1.608 5.749 1.688 8.434 0.085 2.866-2.345 6.724 0.422 8.856 1.156-10.632-0.199-24.626-0.422-37.532-0.011-0.581-0.997-2.515 0.422-2.531 2.136 18.967 0.904 37.958 2.529 56.087 1.632-0.853 0.805-2.921 0.844-4.216 0.623-20.746 0.807-43.305-3.373-59.883-0.927 2.823 0.708 5.68-0.845 7.591-0.475-6.272-0.01-13.483-2.106-18.133-0.607 2.37-0.193 7.55 0.419 9.27zm41.333 16.03c2.094 1.829 2.54 7.137 0.843 9.277 1.084 1.459 1.287 7.246 0.844 9.699-0.329 1.827-1.943 3.337-2.108 5.06-0.211 2.206 0.618 5.393 1.687 6.326 2.023-1.68-1.158-7.273 1.265-9.277 0.263 1.565-0.685 4.34 0.845 4.639-0.043-1.308 0.19-2.34 0.842-2.953 0.136 0.99 0.668 1.583 0.423 2.953 3.651-0.102 3.667-3.786 3.795-6.326 3.336 2.938-0.767 7.811-3.795 8.434 1.499 1.312 2.493 3.131 3.373 5.06 2.514-2.406 7.062-2.779 5.904-8.856-4.481-1.14-1.959-9.287-8.434-8.434-1.23 1.722 1.519 5.994-1.687 6.326-0.975-10.083-0.76-19.669-2.953-27.833 0.02 2.25-1.34 3.14-0.83 5.9zm0-12.23c-0.233 0.751-0.216 1.751-0.844 2.108-0.047-1.92-0.007-3.928-1.265-4.638-0.673 2.018 0.549 3.851 0.844 5.904 0.263 1.833-0.952 4.768 1.265 5.482-0.27-3.19 2.13-6.37 0.01-8.85zm-2.11 4.64c-2.339-4.145-0.714-14.646-3.796-17.29-0.322 5.102 0.421 9.138 1.687 12.651-1.716-1.039-1.815 0.631-1.687 2.53 1.355 0.371 0.578-1.39 1.687-1.266 1.742 3.969 1.51 9.834 2.109 15.182 0.098 0.873 0.71 1.577 0.844 2.53 0.446 3.209-1.347 7.642 1.688 9.278 1.31-8.27-2.54-16.58-2.53-23.61zm-16.03 7.59c0.637 11.201-0.796 25.743 1.687 33.315 3.569-2.121-0.823-8.459 0.845-11.386 1.093 2.702 1.392 6.198 1.265 10.121 2.05-2.043 2.351 1.111 3.796 0.422 0.049-0.688 0.737-5.081-1.688-4.639-1.208 0.058 0.364 2.895-0.844 2.952-0.267-3.505-0.854-8.494 0-12.651 0.808 1.019 0.266 3.389 0.422 5.06 4.238-2.553 0.027-8.918-1.265-12.229 1.158-4.259-0.562-8.889-1.267-12.65-1.33 6.611 0.537 16.464-0.842 21.929-0.625-16.577 1.526-32.392-4.639-44.28-0.27 7.79 2.09 16.15 2.54 24.04zm-61.989-16.03c-0.636-2.834 1.347-5.783-0.422-7.169-0.392 2.18-0.993 5.34 0.422 7.17zm-27.411 13.92c1.3 10.416-0.866 21.665 2.53 29.52-0.674-16.971-0.461-34.583-3.795-48.918-0.094-0.329-0.354-0.49-0.844-0.421-1.849 5.42 1.254 12.97 2.109 19.82zm33.315-16.87c0.473-1.328 0.038-0.954 0-2.53h-1.687c0.412 1 0.137 2.68 1.687 2.53zm59.455 4.64c0.68-1.933 0.687-5.737-0.422-7.169-0.67 1.93-0.09 5.14 0.42 7.17zm5.91-0.84c-0.58 0.018-0.927-0.198-1.265-0.421 0.694 2.538 0.341 6.124 0.42 9.277 2.164-1.069-0.354-6.82 1.688-8.013 1.029 0.72-1.373 4.307 1.266 4.217 0.031-1.514-0.341-3.434 0.843-3.794-2.116-1.118-1.113-5.353-2.529-7.169-0.85 1.24-0.24 3.96-0.42 5.89zm-44.28 11.81c-0.046 3.518-1.443 7.035-1.265 10.543 0.055 1.078 0.722 2.349 0.843 3.373 0.215 1.832 0.228 3.84 0.421 5.904 0.153 1.637-0.803 4.366 1.265 5.482 0.795-5.349 0.52-11.728 0.421-18.134-0.143-9.394 1.313-19.593-2.53-24.459-0.802 5.49 0.918 11.78 0.845 17.3zm40.48-8.44c0.125-2.546 0.9-4.441 0.844-7.169h-1.687c0.41 2.28-0.88 6.24 0.85 7.17zm-59.456-3.79c-1.213 9.916-1.985 23.623-1.266 35.002 0.164 2.582 1.113 5.298 1.266 7.59 0.153 2.312-1.808 5.806 1.265 6.747 1.027-16.209-1.282-32.736-0.421-50.183-0.094-0.33-0.354-0.491-0.843-0.422-0.001 0.41-0.001 0.83-0.001 1.26zm59.886 14.76c-0.508-0.748 0.478-2.956-0.844-3.796-1.181 2.571 0.137 5.097 0.422 6.747 0.598 3.464 0.755 5.653 1.265 8.435 0.362 1.972 0.103 4.414 1.687 5.482v-8.855c-0.334-0.931-1.981-0.548-2.107-1.687 0.86-5.065 2.483-12.852 0.421-19.398-0.46 5.05-0.37 8.64-0.84 13.09zm-35.427 33.31c0.065 1.171-0.856 4.552 1.264 3.795 1.541-0.53 0.895-2.866 0.845-3.795-0.295-5.48-1.731-12.773-0.845-17.712 0.207 5.144 1.108 12.641 1.688 16.446 0.257 1.69-1.006 4.751 1.265 5.061 1.736-1.139-0.276-4.134 0.844-6.326-1.548-1.038-0.664-3.581-0.844-5.482-0.165-1.758-1.067-3.284-1.265-5.06-0.685-6.175 0.92-12.916-1.688-16.447-1.163 3.053 0.348 8.781-0.843 11.808-2.234-4.441-2.159-10.076-2.108-16.025 0.029-3.353 0.681-6.957-0.843-9.699 0.57 12.846-2.237 31.991 0 43.857 0.117 0.621 0.651 0.451 0.843 1.266 0.156 0.666-0.888 2.537 0.843 2.109-0.303-5.417 0.403-12.064 0-17.291-0.188-2.432-1.812-5.12 0-6.747 1.565 4.86 0.505 14.19 0.844 20.25zm-62.835-27.83c1.168 9.149 1.267 19.849 1.688 27.41 0.163 2.936-0.585 7.864 2.952 8.013 0.304-7.116-1.473-14.452-2.109-20.663-1.018-9.937 0.367-21.003-1.687-28.677-0.093-0.329-0.353-0.49-0.843-0.421-0.918 4.65-0.472 10.64-0.001 14.34zm-4.218-10.12c0.803 0.79 1.06 0.046 2.109 0-0.007-1.118 0.233-2.483-0.844-2.53-0.168 1.09-1.258 1.27-1.265 2.53zm80.126 3.37c0.854-1.361 0.202-5.743-0.422-5.482-0.252 2.01-0.779 4.06 0.422 5.48zm-41.328-3.37c-1.071 8.598 0.29 19.404 0 27.833-0.111 3.24-2.592 10.1 2.953 10.122-1.008-10.521-1.659-25.966-1.266-39.22-0.093-0.328-0.354-0.49-0.844-0.421-0.057 0.79-0.277 1.41-0.843 1.69zm67.472 33.73c0.022 7.378 2.042 14.875 2.529 22.352 0.122 1.864-0.125 4.055 0 5.902 0.065 0.966 0.703 1.883 0.845 2.953 0.59 4.496-0.38 9.438 0 13.916 0.416 4.938 1.206 11.806 1.687 16.445 0.152 1.478-0.338 4.138 1.265 5.061-0.143-14.891-0.218-28.812-1.688-41.748-0.259-2.284-1.096-4.106-1.264-6.325-0.342-4.505 0.404-9.004 0-13.495-0.265-2.925-1.427-5.875-1.688-8.856-0.564-6.442-1.285-13.093-0.422-19.399 1.479 17.172 3.316 36.016 4.639 53.979 1.494-13.923-0.251-27.08-2.109-38.797-0.52-3.281 0.261-7.217-0.42-10.543-0.24-1.17-1.176-2.329-1.267-3.374-0.249-2.903 2.278-8.621-1.265-10.542-1.67 2.284 1.201 7.123-0.843 8.434-1.609-2.776 1.233-8.6-1.267-9.699 0.2 11.4 1.23 24.02 1.26 33.75zm5.48-19.39c0.299-4.07 0.096-10.977-1.688-14.338-0.68 4.38-1.06 11.99 1.69 14.34zm-44.697-6.75c-0.467-1.782 0.993-5.491-0.844-5.903 0.467 1.78-0.993 5.49 0.844 5.9zm-69.582-1.69c-0.094 0.798 0.475 0.931 0.422 1.687 2.267-1.039 3.507 1.149 3.795-2.53-1.782-0.1-2.724 0.65-4.217 0.84zm13.916 45.12c0.076 6.072 0.275 12.015 2.53 16.445 0.218-3.964-0.541-8.03-0.843-12.651-0.855-13.058 0.375-28.479-1.265-40.062-0.476-3.355-1.972-6.841-2.109-9.277 0.112 15.33 1.507 31.05 1.687 45.55zm24.459-13.91c1.478-0.477 1.147-2.957 1.266-4.217 0.847-8.997-0.407-18.769 0-26.568-0.089-0.474-0.469-0.656-0.843-0.843-0.98 9.7-0.146 21.22-0.423 31.63zm-37.953-28.68c-0.173 1.017 0.77 0.917 0.421 2.108 1.872 0.326 1.698-1.395 2.53-2.108-0.563-0.6-2.389-0.6-2.951 0zm2.951 10.12c2.255 5.553 1.962 12.623 2.53 17.712 0.211 1.886-0.718 5.595 2.108 5.904-0.812-12.264-1.425-19.635-2.108-31.628-0.089-0.473-0.468-0.656-0.844-0.843-1.134 3.25-1.02 5.15-1.686 8.86zm65.786-3.79c-0.04-1.238 1.494-4.677-0.421-5.061 0.268 1.55-0.546 4.2 0.421 5.06zm-33.315 2.1c-0.61-0.645 0.367-2.845-1.687-2.952-0.518 1.042-1.041 5.083 0.422 5.482-0.307-0.689 0.837-1.834 0.844-0.844 0.643 3.634-0.862 7.872 1.687 8.856-0.415-4.657 1.406-12.389-0.422-16.025-0.244 1.87-0.174 4.05-0.844 5.48zm47.231-2.1c-0.664 5.6-0.42 12.458-0.42 18.977 0 6.634-0.396 13.145 0 18.133 0.065 0.822 0.098 2.892 1.265 3.374 1.97-2.79 0.243-5.877 0-9.277-0.784-10.935 1.184-25.951-0.845-34.158h-1.265c-0.226 1.64 1.075 1.74 1.265 2.96zm-84.762 0.84c0.327 0.094 0.832 0.012 0.844 0.422 1.479-0.186 1.788-0.89 1.265-2.108h-1.688c0.032 0.74-0.093 1.31-0.421 1.69zm28.675 8.01c-0.698-3.307 2.481-6.971 0-9.277 0.328 2.94-2.414 7.04 0 9.28zm86.871 2.95c0.256 1.635-0.594 4.273 1.265 4.639 1.68-5.44-0.265-9.366 0-15.182-0.539-0.023-0.584-0.54-1.265-0.422-1.47 3.06-0.46 8.08-0.01 10.96zm-115.12-9.7v2.951c2.636 0.992 1.611-3.912 2.952-1.687 0.791-0.803 0.046-1.059 0-2.108-1.307-0.03-2.014 0.53-2.952 0.85zm-0.842 3.38c0.59-1.268 0.615-3.062-0.845-3.374-0.59 1.26-0.615 3.06 0.845 3.37zm78.014 17.29c0.281-5.831-1.004-13.565-1.686-19.82-0.094-0.329-0.354-0.491-0.844-0.422 0.33 7.26 0.146 15.03 2.53 20.24zm-47.231-10.97c0.898-1.777 0.382-5.315-0.421-6.748-0.498 1.38-1.097 6.04 0.421 6.75zm-29.941-3.79c0.497 0.066 1.198-0.072 1.266 0.422-2.472-0.375-0.982 2.942 0 2.952-1.207 0.059-0.771 1.759-0.843 2.952h1.687c0.572-2.04-1.268-5.715 0.422-7.591 0.349 1.719 0.064 1.452 0 3.374 1.673 0.408 1.31-1.222 1.687-2.109-1.723 0.127 0.071-0.584-0.422-1.687-1.233-0.934-1.456-0.693-3.795-0.843-0.002 0.85-0.002 1.7-0.002 2.54zm87.294 32.47c3.662-1.302-1.238-10.69 1.265-13.494 0.79 4.411-0.073 10.476 2.109 13.494 0.415-4.01-0.117-9.373-0.845-14.338-0.631-0.071-1.556 0.151-1.687-0.421-1.48-3.621 0.022-6.756 0-11.808-1.772-1.6-0.791-5.955-1.687-8.434-0.757 11.65-0.75 24.38 0.845 35zm-89.824-29.1c1.535 0.41 0.195-2.054 2.109-1.265-0.55-1.923-2.17-1.141-1.266-3.796-0.539-0.023-0.583-0.541-1.265-0.421-0.09 2.72 1.199 2.95 0.422 5.48zm6.748 2.53c0.745-0.868 0.611-3.416-1.266-2.951-0.376 0.5-0.345 3.15 1.266 2.95zm-6.748-1.68c0.803 1.67 0.247 3.064 1.266 3.795 0.476-1.289 0.136-2.107 0.843-3.795-0.555-0.53-1.555-0.53-2.109 0.01zm111.32 5.48c0.519-0.826 1.142-4.575-0.842-4.217-0.29 1.05-1.29 4.43 0.84 4.22zm-13.489 2.95c0.326-1.641 0.927-4.453-0.842-5.061 0.141 1.83-0.482 4.42 0.842 5.06zm-93.197-0.42c0.619-0.668 0.87-3.348-0.843-2.951-0.816 0.86-0.559 3.03 0.843 2.95zm11.386 9.7c2.917-1.676-0.578-6.694 0.422-10.543-0.089-0.473-0.468-0.656-0.843-0.843-0.225 4.15 0.252 7.61 0.421 11.38zm52.714-2.53c3.186-0.432-0.142-3.562 0.843-6.747-0.089-0.474-0.467-0.656-0.843-0.843v7.59zm57.356 3.79c-0.562-2.952 0.646-7.674-1.687-8.856-0.347 2.083 0.474 7.282 0 9.7 1.15 0.31 0.85-0.83 1.69-0.84zm-2.53-0.84c0.321-1.972 0.902-7.573-1.687-8.013-0.057 4.416 1.211 7.505 0.844 12.229 2.85 0.43 1.4-3.22 0.85-4.22zm-118.93-3.37c0.724-0.682 1.047-1.764 0.843-3.375-0.539-0.023-0.584-0.541-1.265-0.421-0.989 0.58-0.794 3.12 0.422 3.79zm1.686-0.43c0.735 0.032 1.312-0.095 1.687-0.422-0.52-1.026-0.355-2.737-1.687-2.951-0.489 1.03-0.125 2.5 0 3.37zm122.72 4.64c3.501-0.49 6.011-4.351 3.796-8.012-4.1 0.43-5.39 5.23-3.8 8.01zm-126.52-0.84c1.871-0.641 0.242-2.733-0.421-3.374 1.272-0.021 1.308-3.445-0.421-2.952-0.063 2.75-1.786 4.94 0.842 6.32zm48.497 0c-0.086-1.319 0.285-3.096-0.421-3.795-0.613-0.652-2.159-0.372-3.374-0.422 0.096-1.501-0.606-2.205-2.109-2.108-0.981 3.301 0.639 7.081 1.687 9.699 0.828-1.702-0.12-5.181 0.843-6.747 0.914 2.683-0.802 6.043 0.843 8.434 1.078-0.75-0.279-3.935 0.844-4.639 0.44 1.758 0.127 3.35 0.422 6.326 0.797-0.094 0.93 0.475 1.687 0.422 1.23-1.682-1.087-5.249 0.421-7.169 1.422 1.39 0.646 4.978 0.843 7.59 0.798-0.095 0.931 0.477 1.688 0.422 1.037-4.042-0.245-7.406 0-11.385h-2.531c-0.961 0.95 1.636 3.14-0.843 3.38zm68.738-3.37c0.484 4.068-0.76 10.031 0.843 12.652 0.383-4.648 0.422-9.732 0-15.183-0.58 0.019-0.927-0.198-1.265-0.421-1.11 0.99 0.28 1.81 0.42 2.95zm-10.54-1.69c-0.458 1.336 1.636 3.544-0.422 3.795-1.197 0.074 0.51-2.758-1.265-2.108 0.891 3.06-0.118 8.585 2.107 10.543 0.575 0.95 0.739-2.039 2.531-1.265 0.329-4.407-0.458-7.696-0.845-11.387-0.99-0.13-1.63 0.07-2.12 0.43zm-3.8 7.59c0.327 1.856-0.127 5.55 2.108 5.481 0.664-3.672-1.005-8.513-1.267-12.651-0.538-0.023-0.583-0.541-1.264-0.422-0.96 2.44 0.16 6.13 0.42 7.59zm-10.962 0c0.238 1.55-0.705 4.548 1.687 4.217 0.347-1.059-0.82-3.631 0.845-3.374 0.141 1.826-0.482 4.417 0.842 5.061 0.967-4.863-0.408-9.2-1.265-12.652-1.172 1.5 0.351 5.692-0.844 7.169-1.189-1.621 0.626-6.249-1.265-7.169-0.82 2.34-0.369 4.34 0 6.74zm4.642 1.27c0.14 1.358-0.821 3.542 0.845 4.217 1.705-0.147 0.952-3.131 0.842-4.638-0.089-1.233-0.688-2.623-0.842-3.795-0.189-1.427 0.801-3.279-0.845-3.374h-0.843c-0.11 2.4 0.59 5.11 0.84 7.59zm2.53-1.69c0.369 1.948-0.235 4.545 1.265 5.482 0.19-4.547-0.055-8.661-1.687-11.385-1.19 2.3 0.12 4.33 0.42 5.91zm-95.31-5.06c-0.074 1.481 1.424 1.387 1.687 2.53-0.92-0.077-1.342 0.345-1.265 1.265 0.329 0.093 0.49 0.353 0.421 0.844 1.191 0.348 1.093-0.595 2.109-0.422 0.12-2.35-1.155-5.13-2.952-4.21zm-0.843 2.53c0.92-0.882-0.21-1.204 0-2.53h-1.687c-0.114 1.52-0.105 2.91 1.687 2.53zm52.714 8.85c0.274-2.116-0.552-5.333 0.422-6.747 1.403 1.409-0.839 6.46 1.265 7.169 0.576-2.411 1.045-8.349-0.421-10.122-0.414 0.57-1.125 0.844-1.687 1.266-0.085-1.462-0.352-2.742-2.109-2.53 0.021 2.34-1.447 10.77 2.53 10.96zm21.928 0.85c3.159-1.435 1.332-9.572 0-11.809-1.864 1.53 0.423 9.02 0 11.81zm-10.12 0.84c1.958-2.735 0.326-9.369 0.421-11.807h-1.265c-0.285 3.57-1.893 10.17 0.844 11.81zm5.061 0c3.378-1.546-0.639-9.174 1.687-10.964 1.47 2.466-0.907 8.778 1.266 10.542 2.375-0.673 0.57-9.332 0-11.385-1.494 0.816-2.437-0.011-4.218 0-0.824 3.55 0.011 8.93 1.265 11.8zm-12.23-0.84c0.935-2.72 0.177-7.134 0.421-10.544h-2.108c0.824 3.98-1.184 9.37 1.687 10.54zm2.109-8.86c2.115 1.961-0.993 9.145 2.952 9.277-0.636-3.159-0.015-7.576-0.843-10.542-0.539-0.023-0.584-0.541-1.266-0.422-0.006 0.83-1.151 0.53-0.843 1.68zm7.168 9.7c2.804-0.56 0.7-3.763 0.422-5.904-0.237-1.823 0.745-4.299-0.843-5.06 0.033 3.89-0.162 8.84 0.421 10.96zm-67.894-6.32c0.837 0.006 0.537 1.15 1.687 0.843 1.019-1.585-1.076-2.257 0.421-4.217-0.489-0.354-1.13-0.556-2.108-0.421 0.027 2.38 1.169 1.98 0 3.8zm123.98 5.06c2.198-1.338 4.992-3.78 3.796-7.169-3.71 0.2-5.8 3.61-3.8 7.17zm-121.03-6.33c-0.032 0.734 0.094 1.311 0.422 1.687 1.262-0.003 1.772-0.758 2.108-1.687-0.539-0.58-1.99-0.58-2.53 0zm9.699 3.79c0.518-0.826 1.141-4.575-0.843-4.217 0.225 1.47-0.626 4.01 0.843 4.22zm48.076 2.54c-0.294-1.675 0.734-4.671-0.844-5.061 0.158 1.6-1.648 4.92 0.844 5.06zm-53.136-2.11c1.609-0.379 0.927-3.419-1.265-2.53-0.017 1.28-0.245 2.77 1.265 2.53zm-4.639-1.69c-0.153 2.423 1.606 2.105 2.952 1.265-0.281-2.02-1.084-1.34-2.952-1.26zm118.5 44.28c1.65-0.578 0.741-2.645 0.844-3.796 1.114-12.528-0.773-27.271-1.687-39.219-0.541-0.022-0.585-0.541-1.267-0.42 0.37 14.98 1.38 28.03 2.12 43.44zm-118.5-41.33c-0.03 1.718 1.559 1.815 3.374 1.687 0.392-2.91-1.734-2.54-3.374-1.69zm44.279 4.22c0.62-0.615 0.62-2.761 0-3.374h-1.265c-0.083 1.08-0.956 3.26 1.265 3.37zm60.727 14.34c0.485 0.918 1.276 1.534 1.687 2.529-0.904 3.425 0.973 8.791 1.265 13.916 0.271 4.753-1.02 10.242 1.687 12.229-0.988-16.323-2.234-30.051-2.951-46.387h-1.265c-0.06 6.93 2.3 12.89-0.43 17.71zm-99.945-12.65c1.189-1.359 1.228-2.506 0.842-4.638h-1.687c-0.829 1.24-0.564 4.3 0.845 4.64zm81.811-1.27c0.212 1.052 1.122 1.407 1.264 2.529-0.792 8.434-0.445 19.915 0.423 29.099-4.343 2.291-0.678 9.772-0.843 14.337 0.106-1.081 0.499-2.742 0.42-4.639-0.119-2.963-2.201-7.144 0.423-8.434 1.163 4.094-1.273 12.241 2.108 13.916-0.35-15.537 0.183-33.699-1.265-49.34-0.602-0.101-0.712-0.695-1.267-0.842-0.814 0.72 0.363 3.44-1.263 3.36zm4.214 3.8c2.062 1.859 0.629 5.198 0.843 8.012 0.215 2.796 1.91 5.563 0.423 8.435-0.743-0.373-0.697-1.871-1.688-0.843-0.426 1.972 1.692 1.4 1.265 3.373-1.215 4.261-0.204 8.141 0 12.65 0.244 5.349-0.878 10.21 1.687 10.965 0.475-10.115-0.959-15.854-0.42-24.881 0.836 5.206 1.199 11.929 1.265 18.134 0.021 2.006-0.986 5.429 1.265 6.325 1.999-3.077 0.263-7.233 0.422-10.964 0.113-2.664-0.164-4.221-0.422-6.326-0.539-4.429 0.485-9.238 0-13.916-0.345-3.331-1.498-5.725-1.265-8.856 0.218-2.949 0.422-6.029-0.422-8.855-0.539-0.022-0.584-0.541-1.265-0.42-1.8 1.15-0.03 5.87-1.69 7.17zm8.44-5.91c0.576 3.467 1.306 7.154 1.687 10.543 1.179 10.46 1.904 19.179 2.109 28.255 0.064 2.929-1.021 7.042 1.264 8.012 2.664-1.602 1.049-5.314 0.845-8.012-0.242-3.17-0.022-6.697-0.422-10.123-0.311-2.65-1.433-5.354-1.687-8.011-0.347-3.626 0.377-7.554 0-10.965-0.435-3.909-2.298-7.418-2.109-10.543-0.093-0.328-0.354-0.489-0.843-0.42-0.11 0.6-0.7 0.71-0.85 1.26zm13.07 6.75c0.628 6.633 2.391 14.955 2.951 22.772 0.385 5.367-1.127 11.437 1.688 13.494 1.211-1.177 0.524-3.348 0.422-5.061-0.115-1.874-0.159-4.293-0.422-6.325-1.267-9.794-0.267-23.726-2.951-32.472-0.024-0.258-0.064-0.5-0.423-0.42-0.99 2.15-1.58 4.77-1.27 8.02zm-65.364-4.22c0.581-0.729 1.768-3.479-0.422-3.373-1.598 0.37-0.676 3.17 0.422 3.37zm52.294 11.81c0.764 8.229 0.32 17.597 0.844 24.459 0.201 2.634-0.497 6.218 1.687 8.012 1.373-14.826-1.669-31.133-3.375-47.231-0.539-0.022-0.583-0.541-1.265-0.422-0.26 4.92 1.59 9.58 2.11 15.18zm-2.95 2.11c0.359 4.165-0.312 8.619 0 12.652 0.088 1.141 0.727 2.26 0.843 3.373 0.577 5.503-1.446 11.735 1.687 14.761 1.758-2.833-0.06-8.188-0.422-12.229-0.494-5.55 0.21-11.001 0-16.447-0.24-6.305-1.882-12.001-2.107-18.555-0.094-0.329-0.353-0.49-0.844-0.422-1.04 6.2 0.36 11.38 0.84 16.87zm-47.236-13.92c0.797 0.095 0.931-0.475 1.687-0.42v-2.109h-1.687c0.211 1.33-0.919 1.65 0 2.53zm3.796 0.42c1.764-0.534 0.54-3.032-0.844-2.952-0.665 0.72-0.456 2.94 0.844 2.95zm31.627 2.11c-0.985-0.841 0.505-4.159-1.265-4.218-1.424 1.1-0.343 3.77-0.422 5.482-0.127 2.765 0.184 4.276 0.422 7.169 0.211 2.552-0.231 5.398 0 8.014 0.256 2.881 1.233 5.474 0.845 8.012-0.079 0.513-1.694 2.087-0.845 3.373 1.659 0.677 0.147-1.82 1.265-1.687 0.673 0.312-0.096 2.064 1.267 1.687 0.892-7.969 0.093-19.179-0.422-26.567 0.948 0.175-0.063 2.313 1.265 2.108 0.61-2.92-0.045-6.181-1.265-8.434-0.881 1.1 0.148 4.1-0.845 5.07zm20.243-0.42c0.173-1.14 0.1-4.216-1.687-4.639-0.67 1.31-0.64 4.99 1.69 4.64zm-50.184-1.26c0.881 0.666 2.8 0.292 3.795 0.843 0.305-1.051 0.213-2.068 0-3.374-1.699-0.292-0.713 2.099-1.687 2.531 0.245-1.369-0.287-1.962-0.421-2.951h-1.265c-0.581 0.54-0.417 1.83-0.422 2.95zm14.338 0.84c0.26-0.471 0.363-3.485-0.843-3.794-0.303 1-1.226 4.02 0.843 3.79zm1.265-2.53c0.767 11.841 2.063 22.853 3.375 35.001-0.201 1.325 1.134 1.114 1.265 2.109-0.691 2.083-0.784 6.544 0.422 7.169-0.172-11.359 0.476-22.059-0.422-33.314-0.278-3.487 0.911-7.331-1.265-8.856-0.891 9.043 1.548 17.005 0.42 24.879-1.639-9.438-1.062-20.14-2.106-28.252h-1.266c-0.024 0.53-0.542 0.58-0.423 1.26zm-9.277 0c0.255 1.009 0.606 1.923 0.421 3.373h2.109c0.633-0.683 0.633-3.112 0-3.796-0.861-0.89-1.669 0.12-2.53 0.43zm4.217 3.37c3.06 0.426 2.369-3.964 0.421-4.218-0.748 0.8-0.307 2.79-0.421 4.22zm15.182 7.17c-0.227 1.059-1.158 1.821-1.265 2.952-0.501 5.274 1.594 11.112 2.107 16.869 0.463 5.19-0.412 10.211 0.844 15.181 2.148-0.309 1.192-3.188 1.265-4.639 0.328-6.535-1.467-12.414-0.843-16.869-2.97-2.189-0.257-5.201 0-7.591 0.611-5.673-1.8-12.506-1.266-17.29h-1.265c-1.374 3.8 1.258 7.48 0.423 11.39zm-37.954-5.9c0.068-1.613 0.251-3.345-1.266-3.373 0.049 1.49-0.304 3.39 1.266 3.37zm35.001 28.67c0.199 1.847 0.089 4.854 0.422 7.169 0.321 2.228-0.753 5.591 2.953 4.639 0.474-10.173-2.709-22.91-2.108-32.051-1.61-2.373-1.123-7.024-1.267-11.807h-1.265c1.673 10.08 0.405 24.03 1.265 32.05zm-32.05-29.52c0.345-1.609-0.897-1.633-1.687-2.108-0.53 5.194 1.065 11.697 2.53 15.181 0.025-1.69 0.467-3.78 0.422-5.061-0.098-2.785-2.489-6.647 0-8.012 0.683 3.755 0.282 7.475 0.422 10.963 0.088 2.226 0.104 4.904 1.265 6.749 2.083-4.712-2.691-12.187 0.843-14.761 0.186 8.288 0.632 17.761 0.843 25.724 0.379 0.747 1.019 1.232 1.266 2.109-0.875 1.179-0.486 4.687 1.687 4.218 0.632-0.938-0.801-5.642 0.421-7.169 1.289 1.836-0.922 5.115 1.266 5.482 0.385-0.74 0.145-2.105 0.843-2.531-0.021 2.131 1.634 4.356 0.843 5.904-0.583 0.061-1.947-0.561-2.53 1.265 1.308 0.961 2.685 0.732 3.795 0.422 1.193-1.899-0.367-6.551 0.843-8.434 0.549 3.27 0.682 6.265 0.844 9.698 2.054-0.104 1.192-2.727 1.265-3.795 0.347-5.131 0.655-11.356 0-16.025-0.547-3.898-2.283-10.31-0.421-13.916 0.904 7.142 0.779 14.716 0.843 20.665 0.03 2.812 0.811 5.913 0.843 8.434 0.022 1.762-1.877 5.328 1.265 5.482 1.311-0.968 0.071-2.47 0-3.796-0.082-1.535 0.421-3.336 0-5.061-0.151-0.617-0.765-0.95-0.843-1.687-0.644-6.072 0.713-13.171 0-19.82-0.177-1.658-1.603-3.35-0.843-5.061-0.744-1.283-1.306 1.151-1.687 0-0.193-1.494-0.938-2.437-0.844-4.218-1.41 0.029-2.807-0.979-4.217-0.421 0.377 8.184 1.673 19.499 0.421 29.098-0.176-7.291-0.775-16.121-1.265-23.194-0.164-2.357 0.961-5.213-0.843-6.747-1.974 0.109-1.196 2.536-1.266 3.796-0.46 8.325 2.287 15.609 0.422 22.35-0.193-7.371-0.851-16.509-1.266-23.194-0.08-1.29 1.738-3.436-0.843-3.795-2.207-0.661-0.269 2.824-2.109 2.53 0.339-1.034 0.725-2.432-0.842-2.53-1.354-0.35-0.576 1.41-1.686 1.28zm-38.796 0c1.48 6.66 0.547 17.571 0.843 23.615 0.083 1.712-0.808 4.535 1.265 5.06-0.333-9.247-0.073-20.548-0.421-29.519-0.54-0.022-0.584-0.541-1.266-0.422-0.023 0.54-0.54 0.58-0.421 1.26zm33.315 9.28c0.307 3.474-1.134 7.841 1.265 10.122 1.112-6.392 0.147-14.487-1.687-19.82-0.499-0.061-0.956-0.752-1.265 0 0.633 3.6 1.379 6.23 1.687 9.7zm26.146 24.04c-0.108-0.757-0.874-1.886-0.844-2.109 0.116-0.856 1.214-0.857 1.265-2.531 0.263-8.69-2.056-18.475-2.53-27.41-0.58 0.02-0.926-0.199-1.265-0.422-0.071 0.492-0.667 0.458-1.266 0.422-1.078 2.332 0.854 1.625 0.843 3.796 0.819 8.499 1.076 21.027 2.109 28.255 0.333 2.326-0.892 5.796 1.687 6.747 0.127-1.85 0.41-3.88 0.001-6.75zm-0.844-31.21c0.095 5.938 1.4 9.877 1.687 15.183 0.188 3.506 0.132 6.582 0.421 9.278 0.104 0.962-0.312 3.277 1.266 3.373 1.354-1.797-0.344-4.141-0.843-5.482 1.474-7.941-0.68-15.906-0.844-23.616h-1.266c-0.023 0.55-0.54 0.59-0.421 1.27zm-60.726 12.65c0.088-1.211-0.107-2.142-0.843-2.529-0.969 1.521-0.427 2.044-0.422 4.216-1.324-0.468-1.114-0.197-2.108 0.423 0.785 2.538-1.56 6.536 0.843 6.747 1.531-0.895 0.453-5.563 0.843-6.325 1.386 1.848-0.885 7.351 1.687 8.012 1.44-3.508-0.883-7.418 0.844-9.698 0.139 3.797 0.188 7.682 0.843 10.965 0.973-6.9 0.149-15.597 0.422-23.194-0.094-0.33-0.354-0.491-0.845-0.423-1.667 2.67-0.114 8.59-1.264 11.79zm108.38 19.82c0.071 1-1.114 3.667 0.844 3.795 1.627-0.808 0.807-2.996 0.843-4.218 0.324-10.76-2.064-19.937-2.107-29.519-0.094-0.328-0.354-0.491-0.844-0.422 0.33 9.17 0.64 21.41 1.27 30.36zm-103.32-15.18c0.213 3.918-0.986 8.899 2.109 11.386-1.329-6.404 1.27-20.386-2.109-26.146-1.282 4.69-0.284 9.52 0 14.76zm32.894-0.84c1.094 0.319 2.789 1.304 3.795 0.422-2.714-2.013-1.006-8.885-4.638-10.965 0.402 3.99 1.961 7.07 0.843 10.54zm77.593 2.53c0.115 1.249 0.909 2.62 0.844 3.795 0 0.004-0.771 0.606-0.844 0.843-0.657 2.187 0.272 4.496 0.422 6.325 0.104 1.268-0.81 3.479 0.845 4.218 1.603-0.52 0.801-2.634 0.842-3.796 0.316-8.844-0.187-17.998-1.687-24.037-0.51 4.19-0.78 8.74-0.42 12.67zm-107.96-1.27c0.23 4.721-0.422 9.965 1.687 11.809 0.498-1.75 0.917-0.954 2.109-0.422 0.448-0.497 0.191-2.67-0.843-2.951-0.096 0.746 0.425 2.11-0.843 1.687-0.056-6.417 0.372-13.132-2.53-16.025-0.381 1.88 0.318 3.83 0.42 5.9zm34.158 3.8c1.185 0.503 1.582 1.791 2.952 2.108-0.3-1.527-0.16-3.495-0.843-4.638-0.437 1.11-1.673 1.42-2.109 2.53zm-9.699 30.36c-3.865 5.553-8.781 10.056-11.387 16.867 0.513 1.598 2.758 1.461 3.795 2.531 4.67-5.311 7.752-12.209 10.122-19.82-1.288-0.3-1.537 0.43-2.53 0.42zm0.422-0.42c0.154-3.106-2.509-3.395-3.795-5.061-0.564-1.643 0.467-4.229-0.421-6.325-0.384-1.163-2.996-0.098-2.53-2.108-0.071-0.915 1.496-0.19 2.108-0.423 1.211 0.478 1.566 1.809 1.687 3.374 1.788-0.1 3.341 0.034 3.795 1.265 2.051-0.197 1.734-2.763 4.639-2.107-0.724-2.095-2.795-5.067-1.687-7.591 2.73 0.63 4.912 3.244 4.638 6.324 3.028 0.958 4.135 5.922 7.592 5.062-1.643-3.701-2.163-8.521-3.796-12.231 0.767-6.811-4.118-7.971-5.904-12.229-8.273 0.443-13.534 3.897-18.134 8.014 2.482 4.442 0.936 9.743 0.422 14.759 2.936 2.688 3.624 7.622 7.591 9.278-1.371-2.851-4.929-5.749-4.217-9.278 2.005 3.52 3.991 9.2 8.012 9.29zm33.737-13.49c1.463-0.338 1.62 0.628 2.952 0.422 0.188-5.278-0.472-13.285-2.531-17.712-1.045 7-1.183 10-0.421 17.29zm53.978-5.91c-0.243-3.692 0.474-8.344-1.687-10.12 0.3 3.67-1.57 8.68 1.69 10.12zm-40.483 1.27c1.479-0.286 1.227-5.573 0-5.904v5.9zm-14.761 5.06c1.066-2.901-0.105-7.198-1.265-9.278-0.095 2.16-1.97 9.11 1.265 9.28zm-46.81-5.06c0.484-0.533 0.848-3.325 0-3.796-0.577 0.73-1.657 3.37 0 3.8zm-1.686 10.54c0.11 3.262-0.545 7.291 1.687 8.434-0.269-4.438 0.448-8.859 0-12.229 0.812-0.78 0.334-0.772 1.687-0.422-0.667-2.557 2.232-5.127-0.421-5.904-0.182 1.365 0.555 3.647-0.843 3.795-0.058-1.349 0.415-3.228-1.266-2.951-0.517 1.618 0.012 5.606-0.843 8.012-0.723-2.532-0.198-4.058 0-7.169-0.356-0.395-2.688-0.901-2.952 0 1.484 2.32 0.633 6.96 2.951 8.44zm-2.952-10.12h-1.688c0.009 1.258-0.039 2.57 1.266 2.53 0.421-1.03 0.14-0.9 0.422-2.53zm36.688 7.17c0.969-1.092 0.049-2.854-1.687-2.529 0.034 1.37 0.54 2.27 1.687 2.53zm1.687 2.95c0.527-0.94 1.015-4.757-0.422-5.062-0.671 1.08-0.781 4.52 0.422 5.06zm7.591 32.05c0.929-2.701 0.481-4.841 0.843-7.59 5.131-5.437 3.885-19.419 4.639-27.834-5.034 0.449-0.695 10.27-3.374 13.073-0.172-4.368 0.253-9.983 0-13.073-3.089 1.551-1.133 8.146-2.953 10.965 0.887 8.216 0.098 17.466-0.843 26.989 0.908-0.33 1.44-1.81 1.688-2.53zm5.06-14.34c1.741-1.351 3.137-3.048 2.953-6.325 3.23-2.457 6.276-10.472 2.951-14.338-2.325 2.178-0.093 11.148-2.951 11.387 0.76-3.5 1.491-9.132 1.265-12.229h-2.109c-0.302 7.56-2.357 13.38-2.109 21.5zm-5.904-17.29c0.039-1.186 1.744-3.999-0.843-4.216-1.612 0.861-0.75 3.821-0.843 5.903-0.115 2.577 0.143 4.946-0.843 6.326v-12.229c-2.845 0.247-0.135 6.051-1.687 7.59-0.647-2.303-0.373-5.53-0.422-8.434-2.095-0.253-0.731 2.344-0.843 3.373-0.273 2.507-1.071 5.876-0.844 8.014-0.427 1.4-2.333 1.319-2.108 3.373 1.072 2.134 0.824 4.097 0 6.325 0.906 0.487 0.722 1.174 0.843 2.109 0.579 4.44-0.059 9.542 0 13.916 0.058 4.257 0.761 8.247-0.843 10.965 0.825 0.463 1.4 3.346 0.421 4.216-1.99-4.461-1.664-12.805-0.421-17.29-1.688-3.512 0.07-10.472-1.687-13.916 0.448-1.237 1.932-5.467 0-6.325-1.491 0.423-0.714 1.744-0.844 2.952-0.587 5.449 0.242 10.407 0 14.338-1.917-4.474-0.957-11.559-1.266-16.867-1.759 1.83-2.388 0.329-3.794 0.42-0.5 4.515 0.405 8.724 0.842 11.387 0.543 3.299 0.112 6.459 0 9.699-0.053 1.556 0.77 3.991-0.842 5.06 1.04-8.894-1.193-16.67-0.844-26.988-1.372 1.205-1.032 3.116-1.265 4.639-0.268 1.75-0.741 3.646-0.844 5.482-0.201 3.599 1 7.08 1.265 10.965 0.235 3.437-0.489 6.711-0.843 10.543-0.618 6.688 0.007 14.045-0.421 20.241-0.148 2.14-0.876 4.232-0.843 6.326 0.087 5.472 0.773 10.838 0 16.025-1.105 7.409-0.83 18.875-1.265 26.565-0.199 3.51-1.9 8.39 1.265 10.543 1.875-3.969 0.734-7.965 0.843-12.649 0.428-18.448 0.476-38.231 2.108-56.51 1.033 2.015 0.112 4.047 0 6.325-0.335 6.831 0.747 14.218 0 19.821-1.315 9.866-0.743 24.558-0.844 34.157-0.035 3.402-1.194 8.481 1.688 9.277 2.07-0.734 1.189-3.286 1.265-4.638 0.348-6.262-0.887-11.046-1.265-16.025-0.443-5.827-0.046-12.334 0-18.555 0.047-6.446-0.461-13.012 0-18.978 0.197-2.561 1.162-5.433 1.265-8.434 0.356-10.371 1.62-25.029 0.843-37.111-0.115-1.795-1.621-3.985 0-4.638 1.87 10.967 0.744 25.379 0 35.424-0.214 2.892 0.222 5.949 0 8.855-0.404 5.294-1.399 10.425-1.266 15.604 0.214 8.221-0.705 17.849 0 26.567 0.388 4.788 1.321 9.553 1.266 15.181-0.026 2.658-0.923 5.91 0.843 6.325 2.267-2.008 0.224-4.721 0-7.167-1.203-13.143 0.528-32.896 0.422-45.967-0.032-3.903 0.168-6.819 0.421-9.7 2.229 2.095 0.216 4.746 0 7.169-0.42 4.718 0 10.525 0 16.447 0 5.779-0.446 12.057 0 17.29 0.659 7.729-0.628 16.089 1.687 21.928 1.73-1.138 0.421-3.389 0.422-5.061 0.01-18.284 0.095-39.91 0-59.038-1.057-0.977-1.334 1.24-2.109-0.422-0.29-10.357 0.542-20.579 0.844-29.098 2.385 7.887-1.97 19.61 0.843 27.833 1.366-1.867-0.773-7.239 1.266-8.434 0.509 2.582-1.052 7.235 0.843 8.434 2.215-1.301-0.329-6.062 0.843-7.592 2.039 1.194-0.101 6.567 1.265 8.435 2.474-1.248 0.903-3.863 0.844-5.903-0.377-13.147-0.697-29.52 2.53-37.532-1.457 7.215-0.397 15.89-0.422 23.194 0.022-0.727-0.325-1.081-0.844-1.265 0.815 1.854 0.46 4.88 2.109 5.902 1.407-10.9 1.704-27.81 2.109-40.47zm46.39-4.64c1.704 2.306 0.359 4.114 0.422 6.747 0.539 0.576 1.991 0.576 2.531 0 0.199-1.323-1.136-1.113-1.266-2.109 2.476-0.982-0.297-2.727 1.266-5.06-1.12 0.01-2.41-0.16-2.95 0.42zm-69.583 2.95c1.504-0.041 2.896-0.195 3.374-1.265-1.336-1.12-2.969 0.16-3.374 1.26zm35.844 16.03c-0.163-1.1-0.217-2.313-0.843-2.951-3.523 2.613-1.385 8.402-2.951 12.651-0.632-3.544 0.307-4.827-0.845-6.749-1.709 2.188 0.304 3.171-0.421 5.904 0.906 1.198 2.947 4.817 1.266 5.905-0.188-0.798 0.572-2.542-0.845-2.109 0.856 8.163 1.213 19.432 0 29.941-0.386-6.682 0.414-13.81 0-20.663-0.179-2.965-1.038-5.721-1.265-8.436-0.229-2.73 0.882-5.893-0.844-7.168-2.411 4.562-0.919 9.979-1.265 15.182-0.043 0.642-0.659 0.746-0.844 1.687-0.977 4.968 1.042 14.675 0 20.663-0.164 0.938-0.803 1.63-0.843 2.531-0.172 3.866 0.268 8.363 0.421 12.651 0.188 5.211 0.075 10.77 0.422 15.603 0.161 2.248 1.288 4.534 1.266 6.747-0.041 4.04 0.124 8.925 0 13.072-0.05 1.636-1.614 4.93 1.265 5.482 1.604-13.358-2.821-28.342-0.422-39.218 0.114 4.024 0.393 9.189 0.844 12.229 0.565 3.812-0.338 7.81 0 11.808 0.222 2.629 0.682 5.364 0.844 8.434 0.121 2.305-0.184 5.486 1.686 6.747 1.822-7.905-1.608-14.308 0-22.35 0.669 7.203 1.108 14.637 1.687 21.93 2.473-1.198 1.527-4.383 1.267-6.327-0.154-1.149-0.721-2.23-0.844-3.373-0.893-8.261 0.082-18.061-0.843-26.99-0.5-4.816-1.188-10.953-0.845-16.867 0.491-8.472 0.423-16.755 0.423-24.882 0-5.399 0.212-10.683 1.265-15.603-0.563 13.358 0.83 26.053 0 37.953-0.063 0.913-0.74 1.662-0.843 2.531-0.347 2.886-0.306 7.89 0 10.542 0.567 4.966 0.666 11.14 0.843 17.29 0.078 2.713 0.724 5.229 0.844 7.169 0.263 4.258 0.755 8.313 1.265 12.651 0.197 1.679-0.813 4.036 0.843 5.482-0.122-12.078-0.556-24.636-1.687-38.797-1.16-14.562 0.197-30.875 1.687-42.593 1.081-8.49 0.578-17.19 2.531-24.881 0.776 6.639-1.058 13.61-1.688 20.663-1.535 17.223-1.731 32.89-0.844 50.185 0.216 4.187-0.861 8.379 0.844 12.229 0.805-16.14 0.585-31.769 1.688-47.23 1.496 6.688-0.58 19.002 0.844 26.988 2.445-5.847 1.104-15.483 2.107-22.772 1.029 2.392-0.273 5.634 0.422 7.592 3.423-1.391 1.845-4.229 1.687-8.012-0.693-0.994-2.563-0.811-2.529-2.531 4.224-4.682 4.201-11.001 5.061-18.977 1.162 1.369-0.343 5.403 0.843 6.747 4.284-5.072 3.548-18.841 3.373-28.255-0.03-1.733 0.748-4.063-0.843-5.061-3.021 1.337-0.014 8.702-1.687 11.388-1.478-2.783 0.913-9.749-1.267-11.388-1.605 0.879-1.206 3.76-1.264 5.905-0.151 5.513-0.163 11.58-1.265 15.181-0.819-4.139 0.812-10.312 0.842-15.181 0.013-1.831 0.138-5.888-1.687-5.905-1.74 12.56-1.049 27.479-3.373 38.376-0.063 2.184 0.431 4.928-1.265 5.482 1.861-9.552 1.118-20.638 2.108-30.784 0.211-2.159 1.113-4.496 1.265-6.749 0.179-2.658 0.573-5.949-0.843-7.169-2.67 0.705-0.252 6.496-1.687 8.436-2.301-1.464 1.339-7.513-1.267-9.278-2.294 4.76-2.102 11.98-3.799 17.31zm19.819-8.01c-0.499-2.313 1.038-6.661-0.843-7.592-0.424 0.002-0.503-0.341-0.844-0.422-1.565 1.731-0.716 4.328-0.843 6.747-0.242 4.594-0.696 9.843-0.422 14.761 2.423-1.652 2.256-5.896 2.529-9.698 2.687-2.272 3.5-7.798 2.108-11.81-0.093-0.327-0.354-0.489-0.843-0.422-0.52 2.58 1.04 7.23-0.86 8.43zm-72.111 10.12c0.145 1.092 2.041 1.836 0.422 2.529 6.306 1.205 2.692-6.527 3.374-12.229 0.18-1.503 1.13-2.335 0.843-3.794-2.343-0.608-3.119-2.784-4.639-4.218 0.443 5.8-0.552 13.51 0 17.71zm17.291-16.87c-0.337 1.349-1.246 2.128-1.266 3.794-0.748 0.096-2.111-0.424-1.687 0.844 2.474 3.873 10.475 4.396 15.603 4.217 0.379-1.234 0.379-1.296 0-2.529-2.874-0.469-5.225-3.307-8.434-4.639-0.723-0.685-0.163-2.649-1.687-2.531-1.233-0.1-1.294 0.96-2.529 0.85zm-7.169 0c0.1 2.57 2.007 3.334 5.06 2.951-0.305-1.29 0.728-1.24 0.422-2.531-1.626-1.18-3.186-0.54-5.482-0.42zm21.085 5.06c1.076-0.784 1.064-2.613-0.422-2.953-0.575 0.57-0.804 2.94 0.422 2.95zm56.084 0.84c1.19 0.349 1.091-0.594 2.107-0.422 0.257-1.661-0.944-1.867-2.107-2.107-0.57 0.54-0.57 2 0 2.53zm-81.808 10.13c0.737-0.388 0.931-1.318 0.844-2.529 2.685 0.295 1.447-3.332 3.795-3.374-0.231-0.612 0.493-2.179-0.422-2.108 0.118 0.961-0.102 1.585-0.844 1.687-1.96-0.71-1.936-3.404-4.217-3.796 0.52 3.14-1.07 8.65 0.844 10.12zm81.808-6.75h2.107v-2.529h-2.529c-0.05 1.04-0.06 2.03 0.42 2.53zm-67.47 8.85c-0.149-2.854 2.638-6.954 0-8.434-1.052 1.42-1.572 7.12 0 8.43zm67.05-5.9h2.951c0.13-1.677-0.81-2.284-2.529-2.109-0.35 0.49-0.55 1.13-0.42 2.11zm-71.267 0c-3.557 2.627-1.616 10.754-3.375 15.181 1.048 3.365 0.583 7.286 0.422 11.386-0.195 4.932-0.987 9.734-1.266 13.073-0.317 3.814 0.506 7.952 0 11.808-0.177 1.349-1.154 2.507-1.265 3.796-0.16 1.863 0.469 4.046 0.421 5.904-0.222 8.622-1.985 17.722-1.265 24.881 0.232 2.312 0.738 5.889 2.951 7.169-1.849-30.74 4.334-64.62 3.377-93.2zm-5.061 49.34c0.421-3.984-0.552-7.765 0-11.387 0.138-0.904 0.757-1.98 0.843-2.951 0.606-6.803-0.752-16.307 0.422-20.665 0.261-0.968 0.565-5.298-0.422-5.061-2.641 1.534-0.84 5.154-0.843 8.014-0.003 2.961-0.532 6.244-0.843 8.855-1.67-3.76 1.589-9.957-0.844-13.073-2.342 3.473-0.926 8.536-1.265 13.073-0.501 6.706-1.437 15.284-2.109 21.086-0.078 0.624-1.019 0.386-1.687 0.42-0.332 1.738 2.019 0.793 1.687 2.531-0.878 2.646-0.775 6.235-0.843 10.965-0.062 4.317-1.149 10.065 1.687 12.229 0.613-14.516 0.726-32.948 2.952-47.231 0.528 15.155-2.939 34.408-2.109 51.026 0.072 1.435 0.113 3.104 1.266 4.217 0.145-9.41 1.172-23.2 2.108-32.05zm5.061-18.98c-0.79 7.438-0.619 16.47-1.266 24.459-0.229 2.837-1.084 5.522-1.265 8.436-0.387 6.226-0.048 12.619 0 18.977 0.046 6.303-0.732 12.859 0.843 18.977 0.324-7.787 1.51-15.708 1.688-23.616 0.105-4.717-0.746-9.329-0.422-13.916 0.977-13.843 2.461-28.378 2.109-41.749-0.064-2.447-1.35-4.913 0.421-7.169 0.082 5.868 0.405 11.804 0.422 17.712 0.031 10.931-1.531 21.812-1.687 32.472-0.143 9.735 0.545 18.92-0.422 28.255-0.331 3.198-0.921 6.373-0.844 10.121 0.031 1.51-0.776 3.79 0.844 5.06 2.003-0.044 1.198-2.466 1.266-3.373 0.299-4.031-0.321-8.434 0-10.965 0.057-0.451 0.809-1.149 0.843-1.687 0.349-5.55-0.704-11.715 0-17.712 0.147-1.265 0.732-2.461 0.843-3.796 1.102-13.229-0.277-27.217 0.843-40.484 0.124-1.467 0.692-2.738 0.843-4.216 0.64-6.282-1.119-12.182-0.843-18.134-2.188 0.624 0.409 6.031-1.687 6.747 0.122-2.619 0.023-5.405 0-8.012-0.028-2.972 0.717-6.15-0.843-8.434-1.385 10.6-0.532 21.17-1.686 32.04zm71.267-27.83c0.616 0.566 3.339 0.863 3.373-0.422-0.37-1.62-3.48-1.77-3.37 0.42zm0.85 6.75c0.538 0.576 1.992 0.576 2.53 0-0.07-1.92-2.61-2.07-2.53 0zm0.42 5.9c1.712 0.167 2.938-0.154 2.951-1.687-0.784-0.059-1.409-0.278-1.687-0.845 0.483-0.679 1.655-1.335 0.844-2.106h-2.53c1.4 2.07-0.26 2.66 0.43 4.65zm0 1.27c-0.573 1.838 1.004 1.525 1.265 2.531-2.744 1.809 1.072 3.966-0.843 7.169 0.798 0.836 1.992 0.204 2.951 0 0.357-1.764-1.141-1.67-1.687-2.531 0.381-0.742 1.553-0.696 1.687-1.687-1.394-0.422-1.436-1.702-0.422-2.529-0.393-0.451-1.555-0.132-1.265-1.267 1.112 0.127 1.385-0.583 1.265-1.687-0.55-0.59-2.38-0.59-2.94 0.01zm-89.405 1.68c0.314 1.378 4.815 1.314 4.638-0.42-1.341-0.53-4.219-1.5-4.638 0.42zm4.217 18.14c2.16 2.141 0.625 5.594 0.843 9.277 1.636-0.098 0.66-2.035 0.843-2.953 1.651-8.253 1.826-15.433 2.109-24.879-0.094-0.33-0.354-0.491-0.843-0.422-3.111 4.19 0.869 15.48-2.952 18.97zm38.797-1.27c1.535-0.265 0.802-2.698 0.844-4.218 0.11-4.018 1.086-9.806-0.844-10.965 0.169 4.78-1.974 11.36 0 15.18zm-42.17-12.65c-0.527 1.636-2.469-0.59-2.953 1.265 1.364 0.402 2.517-0.272 3.796 0.845 0.207-1.481 1.075-2.3 1.687-3.374-1.837 0.271-4.767-0.551-5.903 0.421 0.437 0.97 3.009-0.2 3.373 0.84zm4.216 5.06c-0.425-1.401 0.933-4.587-0.843-4.638-1.583 0.8-0.946 4.63 0.843 4.64zm-7.59-2.53c0.048 1.5 1.395 1.697 2.951 1.688-0.307-1.15 0.838-0.848 0.843-1.688-1.192-0.4-1.949-0.26-3.794 0zm93.615 5.06c1.076-0.05 2.169-0.081 2.108-1.267-0.382-0.882-1.243-1.285-2.53-1.265-0.721 1.536-0.845 4.115 0.422 5.904 0.618-0.789 2.313-0.497 2.108-2.108-0.44-1.4-1.64 0.35-2.11-1.25zm-51.023 1.69c1.616 0.233 1.811-3.597 0.422-3.796-0.706 0.7-0.335 2.48-0.422 3.8zm-3.796-2.11c0.388 5.674-0.819 12.663 0.844 16.024 1.699-4.431 0.403-12.627-0.422-17.289-0.066 0.5 0.073 1.2-0.422 1.27zm53.559 5.48c0.973-0.131 0.469 1.218 1.265 1.265 0.063-1.049 1.428-0.124 1.687 0-0.173-1.017 0.771-0.917 0.422-2.109-1.27 0.14-3.28-0.46-3.37 0.85zm0.42 2.11c0.479 2.727 0.351 4.062 0.843 7.17 1.791 0.537 2.659 0.182 2.531-2.107-0.26-0.585-1.624-0.063-1.687-0.845 0.046-0.796 1.393-0.291 1.264-1.265-0.259-0.585-1.623-0.063-1.687-0.844 1.56 0.295 1.863-0.668 1.687-2.109-0.55-0.6-2.38-0.6-2.94 0zm-48.496 16.45c0.167 1.011-1.92-0.233-1.265 1.265 2.34 15.641-0.815 31.706 2.108 45.545 1.361-2.259-0.988-5.706 1.266-7.168 0.124 2.361-0.954 7.885 0.843 8.856-0.143-6.26 0.563-11.451-0.422-17.292-0.564 1.122-0.134 3.24-1.265 3.796 0.054-3.459-0.503-7.531 1.265-9.278-1.085-11.608-1.161-22.666-0.843-33.735 0.032-1.096 1.453-3.301-0.421-3.795h-0.843c-1.261 3.65-0.559 7.44-0.423 11.82zm-10.121-6.75c0.495 5.733-1.198 11.048 0.843 15.181-0.585-5.361 2.742-12.611-0.422-16.445-0.023 0.54-0.54 0.59-0.421 1.27zm0.422 46.39c-0.329 0.093-0.49 0.352-0.421 0.843 0.728 5.549-0.118 10.127 1.687 14.338 2.22-0.827 0.506-3.028 0.421-5.06 0.747-0.097 2.112 0.424 1.688-0.845 0.204-1.328-1.294-0.954-0.844-2.529-0.256-5.87 0.342-13.503 0-18.977-0.117-1.868-2.158-4.302 0.422-5.062 0.123 2.97-0.26 6.444 1.265 8.013 1.253-7.353 0.253-11.776 0-19.82 0.169-1.097 1.258-1.271 1.266-2.529 0.013-4.979 0.116-7.259 0.422-11.809-0.971-0.997-1.819-2.118-3.375-2.529-0.571 5.846-1.495 8.838-1.265 15.181-1.149-0.414-1.895 1.308-0.843 2.53 0.048-0.515 0.126-0.998 0.843-0.844-1.824 10.5 0.09 22.104-0.422 32.473-1.577-0.52 0.961-3.91-0.844-3.37zm59.035-43.86c0.544 0.58 1.833 0.417 2.951 0.421v-2.109c-1.55-0.01-2.9 0.19-2.95 1.69zm0.43 2.11c-0.438 2.335 3.479 2.232 2.529-0.421-1.04-0.06-2.04-0.07-2.53 0.42zm0 7.17c0.994-0.009 1.241 0.728 2.529 0.422-0.199-2.364-0.408-2.858 0.422-4.638-0.497-0.485-1.49-0.479-2.528-0.422-0.79 0.9-0.29 3.09-0.42 4.64zm0 2.11c0.46 2.913-1.496 8.243 2.529 7.591-0.017-0.582 0.199-0.927 0.422-1.267-0.449-0.814-1.942-0.587-2.528-1.265 0.604-0.66 2.197-0.331 2.106-1.687 0.131-0.973-1.218-0.469-1.265-1.265 0.908-0.358 1.491-1.038 1.265-2.531-0.87-0.89-1.67 0.13-2.53 0.44zm-50.61 14.33c-0.227-4.132-0.832-7.883-0.843-12.229-0.093-0.329-0.354-0.491-0.843-0.422-0.544 3.9-0.511 10.16 1.686 12.65zm51.45 0c1.706 0.299 2.407-0.405 2.108-2.109-0.631-0.071-1.556 0.151-1.687-0.422 1.489-0.025 2.31-2.119 1.265-3.373-0.978-0.134-1.618 0.068-2.106 0.422 1.02 2.73-0.28 3.11 0.42 5.48zm0 2.96h2.531c0.422-1.968-0.736-2.357-2.531-2.108v2.11zm-56.089 24.04c0.086 1.17-1.507 4.341 0.422 4.638 1.879-2.033-0.01-7.188 0.844-9.278 1.674 1.701-1.488 8.235 2.108 8.014 1.416-3.325-0.323-9.822-2.108-12.651-0.909 0.355 0.158 2.688-0.844 2.951-0.001-3.019-0.831-7.955-0.422-10.543-0.041 0.256 2.053-1.285 0-0.842-1.501 4.23-1.203 13.42 0 17.71zm25.303 5.48c0.227 0.801 0.203 2.398 1.265 2.108 0.312-1.673-0.2-5.152 0-8.012-0.58 0.018-0.925-0.198-1.265-0.422-0.878 2.42-0.551 4.37 0 6.32zm-2.53-0.85c1.53 0.104 0.95-4.082 0.422-4.638-0.9 1.72 0.104 2.71-0.422 4.64zm-2.529 6.33c-0.135-3.93-0.199-6.09-0.423-9.276-3.04 0.772 0.731 8.302-2.108 9.276-1.074-1.425 0.954-7.799-1.687-8.856-1.257 4.186-0.908 7.735 0.844 11.388 0.204-0.5 0.449-0.956 0.843-1.265 2.459 1.34 2.258-1.709 4.218 0 2.065-2.672 0.694-7.721-0.845-10.965-0.624 3.79 0.66 6.79-0.842 9.7zm8.011-2.11c0.778-1.635 0.724-6.054-0.423-7.167-0.404 1.41-1.235 6.46 0.423 7.17zm-16.024 2.53c-0.322-3.193 1.008-8.035-1.688-8.855-0.17 3.89 1.588 7.35 1.688 8.86zm2.107 2.11c1.821-2.429-0.894-6.365 0-10.543-0.093-0.329-0.354-0.491-0.842-0.422 0.465 2.85-1.689 8.88 0.842 10.96zm-9.277-8.01c-0.059 2.611-0.194 5.147-0.843 7.169-1.216-1.947 0.313-5.625-0.422-7.169-1.324-0.199-1.114 1.136-2.108 1.267 0.593 4.549-0.55 8.352 0.421 12.649 1.578-0.894 2.216-1.093 3.795-1.265-0.578-4.276 1.373-6.67 0.421-10.12 0.98-0.934 1.129-0.373 2.109-0.845 0.148-1.693-0.007-3.085-1.266-3.373-0.449 0.79-0.291 2.22-2.107 1.67zm19.398 5.48c0.179-1.398 1.204-4.116-0.421-5.061-0.528 0.94-1.015 4.75 0.421 5.06zm-29.097 5.48c-0.308-2.824 0.908-6.042-0.843-8.012-2.059 0.519-0.257 2.979 0 5.482 0.262 2.567-1.105 7.341 1.687 7.59 0.751-2.02-0.794-4.59-0.844-5.06zm1.687 4.64c1.811-0.031 1.785-2.15 3.796-0.844 0.849-2.226 0.131-5.809 0-8.856-0.069-1.582 1.111-4.477-0.844-4.638-2.533 1.448 0.446 8.593-1.265 11.807-1.465-2.611 0.873-9.025-1.266-10.965-2.957 3.56-0.119 9.25-0.421 13.5zm-18.977 0.42c2.614-2.391 0.217-9.489 0.843-12.652h-1.265c-0.078 4.09-1.175 9.05 0.422 12.65zm2.108 0c1.04-0.056 2.032-0.063 2.53 0.422 1.137-4.145-0.433-9.084-0.843-13.074h-1.265c-0.949 3.41-0.166 8.55-0.422 12.65zm-4.217-0.42c1.075-3.353 0.204-6.398 0.844-10.543-1.011 0.167 0.234-1.922-1.266-1.266 0.956 4.3-2.446 9.66 0.422 11.81zm9.699 1.26c2.495-2.369-1.088-8.057 0-13.073h-2.53c1.64 3.56-0.238 10.64 2.53 13.07zm5.061 0h2.53c0.988-1.813 0.242-4.427 0-6.747-0.237-2.28 0.17-5.508-1.687-6.326h-0.843c-0.779 4.17 0.295 7.54 0 13.08zm-2.108 0c1.275-0.827 0.94-4.48 0.842-7.169-0.097-2.668 0.836-6.438-2.53-5.482-0.091 4.87-0.027 9.59 1.688 12.65zm18.554-9.27c-0.543 0.437-1.084 4.435 0.422 4.218 1.24-0.928-1.011-3.16 0.843-3.795v2.529h2.108v-2.107c-1.489 0.07-2.307-1.79-3.373-0.85zm-16.446 13.07v1.687c1.349-0.059 3.227 0.415 2.952-1.267-0.008-1.22-2.383-1-2.952-0.42zm43.016 2.95c-0.838-0.005-0.536-1.151-1.688-0.844-1.429 1.399 0.355 1.321-0.422 3.373 1.623 0.077 1.91-1.183 2.531-2.107 0.497 0.627 0.363 1.885 1.687 1.688 1.43-2.202-1.294-3.393 0.422-5.061-1.192 0.349-1.093-0.596-2.108-0.422-0.08 1.75 0.73 2.32-0.42 3.37zm-49.763-0.84c0.747 3.527 4.677-0.403 2.108-2.107-0.617 0.79-2.314 0.5-2.108 2.11zm63.683 1.26c-0.625 0.359-0.906 1.061-0.843 2.107 0.326 0.096 0.83 0.012 0.843 0.422 1.074-0.051 1.635-0.612 1.687-1.687-0.041-1.083-1.646-0.603-1.687-1.687 1.111 0.127 1.385-0.584 1.265-1.687-1.432 0.114-3.418-0.326-4.216 0.422v1.687c1.664 0.541 1.019-1.229 2.108-1.265-0.31 1.16 0.84 0.85 0.85 1.69zm-53.14 0c0.498 0.486 1.49 0.478 2.53 0.421v-2.107c-1.791-0.38-2.123 0.7-2.53 1.69zm43.01 0.85c2.708 0.755 2.708-3.284 0-2.529 0.35 1.46-0.78 1.78 0 2.53zm15.19 0.84c1.165-0.242 2.364-0.448 2.108-2.109-1.75-1.48-3.91 1.11-2.11 2.11zm-61.574-1.69c-0.369 1.929 3.329 1.688 2.53-0.422-1.039-0.05-2.032-0.06-2.53 0.42zm34.581 0c-0.301 1.704 0.402 2.408 2.106 2.107-0.306-1.288 0.728-1.239 0.423-2.529-1.04-0.05-2.032-0.06-2.529 0.42zm-36.269 4.64c-0.54-1.92 1.479-3.928-0.421-4.639-1.077 1.58-0.309 3.33 0.421 4.64zm21.508-1.69c-2.152 1.063-2.976 1.937-5.061 0.844-0.721 1.673-0.042 4.145 0 5.48 1.938-0.947 3.251 0.102 4.217-1.687 0.005 0.558 0.739 0.386 0.844 0.845-0.182 0.803-0.909 1.059-0.844 2.108 0.259 0.583 1.623 0.063 1.687 0.843-1.086 0.319-1.465 1.347-1.265 2.953h1.688c0.079-2.692 0.545-5.759 0-8.436-2.639-0.098-3.753 2.586-5.905 1.687 0.585-0.68 0.357-2.172 1.266-2.529 2.424 0.175 4.245-0.254 4.639-2.108-0.584-0.684-1.493-1.038-1.266-2.531h-1.265c-1.041 1.73 0.786 1.31 1.265 2.54zm10.965 0c1.349-0.056 1.854-0.956 1.687-2.531h-1.687c-0.038 1.58-0.474 1.21 0 2.53zm23.189 0c1.51 0.245 1.281-1.248 1.265-2.531h-1.687c0.62 1.26-0.33 1.44 0.43 2.53zm-64.939-0.84c-0.151 1.623 7.32 1.572 7.169-0.843-2.737-0.76-4.194 1.95-7.169 0.84zm14.76 0.84c0.798-0.095 0.931 0.475 1.687 0.422 0.354-0.489 0.557-1.131 0.422-2.109-1.581-0.31-2.055 0.48-2.109 1.69zm5.06 0.85c1.764 0.901 2.854-0.583 4.639-0.422v-1.687c-1.771 0.48-3.705 0.79-4.639 2.11zm37.109-0.42c0.539 0.576 1.99 0.576 2.531 0v-1.267c-0.96-0.91-2.63-0.15-2.53 1.27zm-1.69 1.26c1.113-0.541 1.929-2.688-0.423-2.531-0.58 0.54-0.73 2.52 0.42 2.53zm16.45-1.69c-0.179 2.163 3.205 1.175 2.951-0.423-1.37-0.24-1.96 0.29-2.95 0.42zm-57.35 1.27c-0.235 2.106 2.974 0.945 3.373 0-0.99-1-2.072 0.07-3.373 0zm8.434 2.95c1.325-0.081 2.028-0.784 2.109-2.109-1.674-0.97-3.078 0.44-2.109 2.11zm35.006 0c0.797 0.094 0.931-0.476 1.688-0.423 0.134-0.978-0.068-1.619-0.422-2.108h-1.266c-0.97 0.93-0.69 1.4 0 2.53zm-24.885 0.42c1.191-0.349 1.092 0.596 2.109 0.422v-2.951c-1.647-0.1-1.527 1.57-2.109 2.53zm-16.447 1.27c1.511 0.245 1.283-1.249 1.265-2.531h-1.265c-0.826 0.79-0.13 1.54 0 2.53zm25.303-1.69c-0.295 1.297-0.295 0.81 0 2.106 2.39-0.943 3.651-0.764 6.747-0.842 0.192-1.598-1.292-1.519-2.109-2.109-0.968 1.55-3.133 1.99-4.638 0.84zm20.659 0c0.141 1.492 1.16 1.036 0.422 2.529h1.265c-0.231-1.682-0.231-1.271 0-2.952-0.73-0.03-1.31 0.1-1.69 0.42zm-29.093 3.38c1.87 0.739 3.031-2.045 5.48-0.844 0.118-0.961-0.102-1.586-0.843-1.688-0.878 2.37-5.339-1.43-4.637 2.53zm16.446 0.42c1.321 0.197 1.882-0.366 1.687-1.688-0.569-0.132-0.805-0.599-1.687-0.42-0.371 0.98-0.371 1.13 0 2.11zm-1.265-1.27c-0.489-0.354-1.131-0.557-2.109-0.423-0.547 2.75 2.368 3.18 2.109 0.42zm-2.531 1.69c-0.553-2.967-5.381-0.772-6.325 0.844 1.312 0.165 1.606 0.176 1.688 1.265 0.348-1.115 1.477-1.596 2.108-0.422-0.172 0.813-1.635 0.333-1.265 1.687 0.365 0.618 0.63 1.337 1.687 1.267 1.654-1.357-1.16-4.61 0.843-5.904-0.253 1.09 0.169 1.51 1.264 1.26zm-20.663 0c0.943 0.182 0.17 2.078 0.422 2.953h1.687c-0.883-1.527-0.883-2.271 0-3.796-1.046-0.05-2.047-0.07-2.109 0.85zm29.096 2.53c1.491 0.227 2.173-0.359 2.529-1.267-0.934-0.33 0.081-2.61-1.687-2.107-1.33 0.77-0.34 2.61-0.84 3.38zm-18.553-2.11c0.058 0.786 0.277 1.409 0.844 1.687 0.537-1.791 0.673-0.71 2.107-0.422 0.247-1 0.646-1.963-0.843-2.108 0.433 1.41-1.31 0.65-2.108 0.84zm-2.952 1.69c0.797-0.094 0.931 0.476 1.688 0.423 0.354-0.489 0.556-1.131 0.422-2.109-1.583-0.31-2.057 0.48-2.11 1.69zm16.445 1.26h2.109c0.485-0.497 0.477-1.489 0.422-2.529-0.488-0.354-1.131-0.556-2.108-0.422-0.58 0.54-0.417 1.83-0.423 2.95zm-16.023 2.95c0.028 1.235 0.152 2.377 1.687 2.107 0.791-0.745-0.503-1.23 0.42-2.107-1.297-0.29-0.81-0.29-2.107 0z"
    />
	<path
        style="clip-rule:evenodd;fill-rule:evenodd"
        d="m55.25 127.36c2.876 0.729 0.474 1.965 0.421 2.952-0.198 3.759-0.41 8.171-0.421 12.651-0.035 13.729 1.783 26.161 1.266 40.062-1.948-16.62-2.127-38.99-1.266-55.66z"
    />
	<path
        style="clip-rule:evenodd;fill-rule:evenodd"
        d="m56.094 183.44c1.521 1.291 1.322 4.3 1.265 7.168-1.787-1.02-0.234-5.39-1.265-7.17z"
    />
	<path
        style="clip-rule:evenodd;fill-rule:evenodd"
        d="m32.479 126.94c0.375 0.328 0.952 0.453 1.687 0.421-0.106 2.426 0.847 6.873 0.421 10.965-2.096-2.24-3.314-7.21-2.108-11.38z"
    />
	<path
        style="clip-rule:evenodd;fill-rule:evenodd"
        d="m128.63 351.28c0.603 11.653 1.56 19.35 1.687 32.051-0.444 1.85 1.427 1.385 1.265 2.951-1.547 3.166-0.284 9.464-2.53 13.496-3.216-1.845-2.13-7.993-4.639-10.543 0.932-9.299-1.487-21.219-1.687-32.05 0.71-1.258 2.799-1.138 4.218-1.688-2.75-0.95 1.21-2.66 1.69-4.22zm-3.8 8.02c0.994-0.411 2.676-0.137 2.529-1.687-0.356-0.908-1.038-1.493-2.529-1.267-0.6 0.57-0.6 2.39 0 2.96zm0 0.84v1.265c1.52 0.115 2.918 0.106 2.529-1.687-1.04-0.05-2.03-0.06-2.53 0.43zm0 4.22c1.328-0.474 0.954-0.038 2.529 0v-2.531h-2.529v2.53zm0 1.26c-0.128 1.644 1.613 2.814 2.952 1.687 0.41-1.92-1.77-2.66-2.95-1.69zm0.85 5.48c0.589-1.326 2.082 0.58 2.531-0.422 0.35-3.43-4.65-2.61-2.53 0.42zm-0.42 1.27c-0.169 1.58 1.916 2.176 2.951 1.267v-1.688c-0.84-0.85-2.01 0.13-2.95 0.42zm0.42 5.06h2.531v-2.529c-2.09-0.4-2.93 0.45-2.53 2.53zm0 2.53c0.798 0.836 1.992 0.205 2.953 0 0.095-0.798-0.476-0.93-0.422-1.687-1 0.41-2.68 0.14-2.53 1.69zm0.42 3.8c0.5 0.485 1.491 0.478 2.531 0.422 1.08-3.72-2.91-3.47-2.53-0.42zm0.42 2.52h2.529c0.54-2.52-2.83-1.84-2.53 0zm-0.84 1.27c-0.141 1.687 1.206 1.886 2.953 1.687 0.127-0.984 0.899-1.817-0.422-2.108-0.06 0.93-1.79 0.18-2.53 0.42z"
    />
</g>
<metadata
    ><rdf:RDF
      ><cc:Work
        ><dc:format
          >image/svg+xml</dc:format><dc:type
            rdf:resource="http://purl.org/dc/dcmitype/StillImage"
        /><cc:license
            rdf:resource="http://creativecommons.org/licenses/publicdomain/"
        /><dc:publisher
          ><cc:Agent
              rdf:about="http://openclipart.org/"
            ><dc:title
              >Openclipart</dc:title></cc:Agent></dc:publisher><dc:title
          >old Alpine hiker</dc:title><dc:date
          >2007-11-28T15:12:52</dc:date><dc:description
          >Professor Knatschke, selected works of the great German scholar and of his daughter Elsa, collected and illustrated by Hansi, 1917</dc:description><dc:source
          >https://openclipart.org/detail/9265/old-alpine-hiker-by-johnny_automatic</dc:source><dc:creator
          ><cc:Agent
            ><dc:title
              >johnny_automatic</dc:title></cc:Agent></dc:creator><dc:subject
          ><rdf:Bag
            ><rdf:li
              >externalsource</rdf:li><rdf:li
              >hiker</rdf:li><rdf:li
              >hiking</rdf:li><rdf:li
              >man</rdf:li><rdf:li
              >person</rdf:li></rdf:Bag></dc:subject></cc:Work><cc:License
          rdf:about="http://creativecommons.org/licenses/publicdomain/"
        ><cc:permits
            rdf:resource="http://creativecommons.org/ns#Reproduction"
        /><cc:permits
            rdf:resource="http://creativecommons.org/ns#Distribution"
        /><cc:permits
            rdf:resource="http://creativecommons.org/ns#DerivativeWorks"
        /></cc:License></rdf:RDF></metadata></svg>
